G04 #@! TF.GenerationSoftware,KiCad,Pcbnew,5.1.5*
G04 #@! TF.CreationDate,2020-03-26T23:23:50-05:00*
G04 #@! TF.ProjectId,arduino-lab,61726475-696e-46f2-9d6c-61622e6b6963,rev?*
G04 #@! TF.SameCoordinates,Original*
G04 #@! TF.FileFunction,Legend,Top*
G04 #@! TF.FilePolarity,Positive*
%FSLAX46Y46*%
G04 Gerber Fmt 4.6, Leading zero omitted, Abs format (unit mm)*
G04 Created by KiCad (PCBNEW 5.1.5) date 2020-03-26 23:23:50*
%MOMM*%
%LPD*%
G04 APERTURE LIST*
%ADD10C,0.150000*%
%ADD11C,0.120000*%
G04 APERTURE END LIST*
D10*
X84547619Y-112452380D02*
X84214285Y-111976190D01*
X83976190Y-112452380D02*
X83976190Y-111452380D01*
X84357142Y-111452380D01*
X84452380Y-111500000D01*
X84500000Y-111547619D01*
X84547619Y-111642857D01*
X84547619Y-111785714D01*
X84500000Y-111880952D01*
X84452380Y-111928571D01*
X84357142Y-111976190D01*
X83976190Y-111976190D01*
X84976190Y-111928571D02*
X85309523Y-111928571D01*
X85452380Y-112452380D02*
X84976190Y-112452380D01*
X84976190Y-111452380D01*
X85452380Y-111452380D01*
X85833333Y-112404761D02*
X85976190Y-112452380D01*
X86214285Y-112452380D01*
X86309523Y-112404761D01*
X86357142Y-112357142D01*
X86404761Y-112261904D01*
X86404761Y-112166666D01*
X86357142Y-112071428D01*
X86309523Y-112023809D01*
X86214285Y-111976190D01*
X86023809Y-111928571D01*
X85928571Y-111880952D01*
X85880952Y-111833333D01*
X85833333Y-111738095D01*
X85833333Y-111642857D01*
X85880952Y-111547619D01*
X85928571Y-111500000D01*
X86023809Y-111452380D01*
X86261904Y-111452380D01*
X86404761Y-111500000D01*
X86833333Y-111928571D02*
X87166666Y-111928571D01*
X87309523Y-112452380D02*
X86833333Y-112452380D01*
X86833333Y-111452380D01*
X87309523Y-111452380D01*
X87595238Y-111452380D02*
X88166666Y-111452380D01*
X87880952Y-112452380D02*
X87880952Y-111452380D01*
D11*
X82162779Y-68490000D02*
X81837221Y-68490000D01*
X82162779Y-69510000D02*
X81837221Y-69510000D01*
X82162779Y-66490000D02*
X81837221Y-66490000D01*
X82162779Y-67510000D02*
X81837221Y-67510000D01*
X55200000Y-38000000D02*
X55200000Y-100000000D01*
X155200000Y-38000000D02*
X55200000Y-38000000D01*
X155200000Y-100000000D02*
X155200000Y-38000000D01*
X55200000Y-100000000D02*
X155200000Y-100000000D01*
D10*
X65000000Y-60660000D02*
X129516000Y-60660000D01*
X65000000Y-114000000D02*
X131040000Y-114000000D01*
X129516000Y-60660000D02*
X131040000Y-62184000D01*
X131040000Y-114000000D02*
X131040000Y-112730000D01*
X131040000Y-112730000D02*
X133580000Y-110190000D01*
X133580000Y-110190000D02*
X133580000Y-75900000D01*
X133580000Y-75900000D02*
X131040000Y-73360000D01*
X131040000Y-73360000D02*
X131040000Y-62184000D01*
X65000000Y-60660000D02*
X65000000Y-114000000D01*
D11*
X88035000Y-55000000D02*
X88035000Y-51550000D01*
X88035000Y-55000000D02*
X88035000Y-56950000D01*
X79165000Y-55000000D02*
X79165000Y-53050000D01*
X79165000Y-55000000D02*
X79165000Y-56950000D01*
X82750000Y-105500000D02*
X82750000Y-107000000D01*
X84000000Y-109500000D02*
X88500000Y-109500000D01*
X89750000Y-107000000D02*
X89750000Y-105500000D01*
X88500000Y-103000000D02*
X84000000Y-103000000D01*
X124750000Y-123500000D02*
X124750000Y-122000000D01*
X123500000Y-119500000D02*
X119000000Y-119500000D01*
X117750000Y-122000000D02*
X117750000Y-123500000D01*
X119000000Y-126000000D02*
X123500000Y-126000000D01*
X107750000Y-123500000D02*
X107750000Y-122000000D01*
X106500000Y-119500000D02*
X102000000Y-119500000D01*
X100750000Y-122000000D02*
X100750000Y-123500000D01*
X102000000Y-126000000D02*
X106500000Y-126000000D01*
X125490000Y-107837221D02*
X125490000Y-108162779D01*
X126510000Y-107837221D02*
X126510000Y-108162779D01*
X118490000Y-107837221D02*
X118490000Y-108162779D01*
X119510000Y-107837221D02*
X119510000Y-108162779D01*
X111490000Y-107837221D02*
X111490000Y-108162779D01*
X112510000Y-107837221D02*
X112510000Y-108162779D01*
X104490000Y-107837221D02*
X104490000Y-108162779D01*
X105510000Y-107837221D02*
X105510000Y-108162779D01*
X97490000Y-107837221D02*
X97490000Y-108162779D01*
X98510000Y-107837221D02*
X98510000Y-108162779D01*
X100330000Y-34670000D02*
X100330000Y-36000000D01*
X99000000Y-34670000D02*
X100330000Y-34670000D01*
X97730000Y-34670000D02*
X97730000Y-37330000D01*
X97730000Y-37330000D02*
X90050000Y-37330000D01*
X97730000Y-34670000D02*
X90050000Y-34670000D01*
X90050000Y-34670000D02*
X90050000Y-37330000D01*
X84130000Y-34670000D02*
X84130000Y-36000000D01*
X82800000Y-34670000D02*
X84130000Y-34670000D01*
X81530000Y-34670000D02*
X81530000Y-37330000D01*
X81530000Y-37330000D02*
X76390000Y-37330000D01*
X81530000Y-34670000D02*
X76390000Y-34670000D01*
X76390000Y-34670000D02*
X76390000Y-37330000D01*
X73530000Y-34670000D02*
X73530000Y-36000000D01*
X72200000Y-34670000D02*
X73530000Y-34670000D01*
X70930000Y-34670000D02*
X70930000Y-37330000D01*
X70930000Y-37330000D02*
X65790000Y-37330000D01*
X70930000Y-34670000D02*
X65790000Y-34670000D01*
X65790000Y-34670000D02*
X65790000Y-37330000D01*
X83000000Y-132000000D02*
X86000000Y-129000000D01*
X71000000Y-132000000D02*
X83000000Y-132000000D01*
X68000000Y-129000000D02*
X71000000Y-132000000D01*
X68000000Y-117000000D02*
X68000000Y-129000000D01*
X71000000Y-114000000D02*
X68000000Y-117000000D01*
X83000000Y-114000000D02*
X71000000Y-114000000D01*
X86000000Y-117000000D02*
X83000000Y-114000000D01*
X86000000Y-129000000D02*
X86000000Y-117000000D01*
X84000000Y-123000000D02*
G75*
G03X84000000Y-123000000I-7000000J0D01*
G01*
X124865000Y-100715000D02*
X124865000Y-104600000D01*
X127135000Y-100715000D02*
X124865000Y-100715000D01*
X127135000Y-104600000D02*
X127135000Y-100715000D01*
X117865000Y-100715000D02*
X117865000Y-104600000D01*
X120135000Y-100715000D02*
X117865000Y-100715000D01*
X120135000Y-104600000D02*
X120135000Y-100715000D01*
X110865000Y-100715000D02*
X110865000Y-104600000D01*
X113135000Y-100715000D02*
X110865000Y-100715000D01*
X113135000Y-104600000D02*
X113135000Y-100715000D01*
X103865000Y-100715000D02*
X103865000Y-104600000D01*
X106135000Y-100715000D02*
X103865000Y-100715000D01*
X106135000Y-104600000D02*
X106135000Y-100715000D01*
X96865000Y-100715000D02*
X96865000Y-104600000D01*
X99135000Y-100715000D02*
X96865000Y-100715000D01*
X99135000Y-104600000D02*
X99135000Y-100715000D01*
D10*
X81833333Y-70882380D02*
X81500000Y-70406190D01*
X81261904Y-70882380D02*
X81261904Y-69882380D01*
X81642857Y-69882380D01*
X81738095Y-69930000D01*
X81785714Y-69977619D01*
X81833333Y-70072857D01*
X81833333Y-70215714D01*
X81785714Y-70310952D01*
X81738095Y-70358571D01*
X81642857Y-70406190D01*
X81261904Y-70406190D01*
X82166666Y-69882380D02*
X82833333Y-69882380D01*
X82404761Y-70882380D01*
X81833333Y-68882380D02*
X81500000Y-68406190D01*
X81261904Y-68882380D02*
X81261904Y-67882380D01*
X81642857Y-67882380D01*
X81738095Y-67930000D01*
X81785714Y-67977619D01*
X81833333Y-68072857D01*
X81833333Y-68215714D01*
X81785714Y-68310952D01*
X81738095Y-68358571D01*
X81642857Y-68406190D01*
X81261904Y-68406190D01*
X82690476Y-67882380D02*
X82500000Y-67882380D01*
X82404761Y-67930000D01*
X82357142Y-67977619D01*
X82261904Y-68120476D01*
X82214285Y-68310952D01*
X82214285Y-68691904D01*
X82261904Y-68787142D01*
X82309523Y-68834761D01*
X82404761Y-68882380D01*
X82595238Y-68882380D01*
X82690476Y-68834761D01*
X82738095Y-68787142D01*
X82785714Y-68691904D01*
X82785714Y-68453809D01*
X82738095Y-68358571D01*
X82690476Y-68310952D01*
X82595238Y-68263333D01*
X82404761Y-68263333D01*
X82309523Y-68310952D01*
X82261904Y-68358571D01*
X82214285Y-68453809D01*
X127484000Y-82353142D02*
X127531619Y-82400761D01*
X127484000Y-82448380D01*
X127436380Y-82400761D01*
X127484000Y-82353142D01*
X127484000Y-82448380D01*
X88332380Y-55761904D02*
X89141904Y-55761904D01*
X89237142Y-55714285D01*
X89284761Y-55666666D01*
X89332380Y-55571428D01*
X89332380Y-55380952D01*
X89284761Y-55285714D01*
X89237142Y-55238095D01*
X89141904Y-55190476D01*
X88332380Y-55190476D01*
X89332380Y-54190476D02*
X89332380Y-54761904D01*
X89332380Y-54476190D02*
X88332380Y-54476190D01*
X88475238Y-54571428D01*
X88570476Y-54666666D01*
X88618095Y-54761904D01*
X119916666Y-118904761D02*
X120059523Y-118952380D01*
X120297619Y-118952380D01*
X120392857Y-118904761D01*
X120440476Y-118857142D01*
X120488095Y-118761904D01*
X120488095Y-118666666D01*
X120440476Y-118571428D01*
X120392857Y-118523809D01*
X120297619Y-118476190D01*
X120107142Y-118428571D01*
X120011904Y-118380952D01*
X119964285Y-118333333D01*
X119916666Y-118238095D01*
X119916666Y-118142857D01*
X119964285Y-118047619D01*
X120011904Y-118000000D01*
X120107142Y-117952380D01*
X120345238Y-117952380D01*
X120488095Y-118000000D01*
X120821428Y-117952380D02*
X121059523Y-118952380D01*
X121250000Y-118238095D01*
X121440476Y-118952380D01*
X121678571Y-117952380D01*
X122011904Y-118047619D02*
X122059523Y-118000000D01*
X122154761Y-117952380D01*
X122392857Y-117952380D01*
X122488095Y-118000000D01*
X122535714Y-118047619D01*
X122583333Y-118142857D01*
X122583333Y-118238095D01*
X122535714Y-118380952D01*
X121964285Y-118952380D01*
X122583333Y-118952380D01*
X102916666Y-118904761D02*
X103059523Y-118952380D01*
X103297619Y-118952380D01*
X103392857Y-118904761D01*
X103440476Y-118857142D01*
X103488095Y-118761904D01*
X103488095Y-118666666D01*
X103440476Y-118571428D01*
X103392857Y-118523809D01*
X103297619Y-118476190D01*
X103107142Y-118428571D01*
X103011904Y-118380952D01*
X102964285Y-118333333D01*
X102916666Y-118238095D01*
X102916666Y-118142857D01*
X102964285Y-118047619D01*
X103011904Y-118000000D01*
X103107142Y-117952380D01*
X103345238Y-117952380D01*
X103488095Y-118000000D01*
X103821428Y-117952380D02*
X104059523Y-118952380D01*
X104250000Y-118238095D01*
X104440476Y-118952380D01*
X104678571Y-117952380D01*
X105583333Y-118952380D02*
X105011904Y-118952380D01*
X105297619Y-118952380D02*
X105297619Y-117952380D01*
X105202380Y-118095238D01*
X105107142Y-118190476D01*
X105011904Y-118238095D01*
X76666666Y-136549380D02*
X76666666Y-137263666D01*
X76619047Y-137406523D01*
X76523809Y-137501761D01*
X76380952Y-137549380D01*
X76285714Y-137549380D01*
X77666666Y-137549380D02*
X77095238Y-137549380D01*
X77380952Y-137549380D02*
X77380952Y-136549380D01*
X77285714Y-136692238D01*
X77190476Y-136787476D01*
X77095238Y-136835095D01*
X88380952Y-131976190D02*
X88380952Y-132452380D01*
X88047619Y-131452380D02*
X88380952Y-131976190D01*
X88714285Y-131452380D01*
X89047619Y-132071428D02*
X89809523Y-132071428D01*
X87000000Y-131976190D02*
X87000000Y-132452380D01*
X86666666Y-131452380D02*
X87000000Y-131976190D01*
X87333333Y-131452380D01*
X84380952Y-131976190D02*
X84380952Y-132452380D01*
X84047619Y-131452380D02*
X84380952Y-131976190D01*
X84714285Y-131452380D01*
X85047619Y-132071428D02*
X85809523Y-132071428D01*
X85428571Y-132452380D02*
X85428571Y-131690476D01*
X88047619Y-124452380D02*
X88714285Y-125452380D01*
X88714285Y-124452380D02*
X88047619Y-125452380D01*
X89095238Y-125071428D02*
X89857142Y-125071428D01*
X88166666Y-122452380D02*
X88833333Y-123452380D01*
X88833333Y-122452380D02*
X88166666Y-123452380D01*
X88047619Y-120452380D02*
X88714285Y-121452380D01*
X88714285Y-120452380D02*
X88047619Y-121452380D01*
X89095238Y-121071428D02*
X89857142Y-121071428D01*
X89476190Y-121452380D02*
X89476190Y-120690476D01*
X127880952Y-103452380D02*
X127404761Y-103452380D01*
X127404761Y-102452380D01*
X128214285Y-102928571D02*
X128547619Y-102928571D01*
X128690476Y-103452380D02*
X128214285Y-103452380D01*
X128214285Y-102452380D01*
X128690476Y-102452380D01*
X129119047Y-103452380D02*
X129119047Y-102452380D01*
X129357142Y-102452380D01*
X129500000Y-102500000D01*
X129595238Y-102595238D01*
X129642857Y-102690476D01*
X129690476Y-102880952D01*
X129690476Y-103023809D01*
X129642857Y-103214285D01*
X129595238Y-103309523D01*
X129500000Y-103404761D01*
X129357142Y-103452380D01*
X129119047Y-103452380D01*
X130595238Y-102452380D02*
X130119047Y-102452380D01*
X130071428Y-102928571D01*
X130119047Y-102880952D01*
X130214285Y-102833333D01*
X130452380Y-102833333D01*
X130547619Y-102880952D01*
X130595238Y-102928571D01*
X130642857Y-103023809D01*
X130642857Y-103261904D01*
X130595238Y-103357142D01*
X130547619Y-103404761D01*
X130452380Y-103452380D01*
X130214285Y-103452380D01*
X130119047Y-103404761D01*
X130071428Y-103357142D01*
X120880952Y-103452380D02*
X120404761Y-103452380D01*
X120404761Y-102452380D01*
X121214285Y-102928571D02*
X121547619Y-102928571D01*
X121690476Y-103452380D02*
X121214285Y-103452380D01*
X121214285Y-102452380D01*
X121690476Y-102452380D01*
X122119047Y-103452380D02*
X122119047Y-102452380D01*
X122357142Y-102452380D01*
X122500000Y-102500000D01*
X122595238Y-102595238D01*
X122642857Y-102690476D01*
X122690476Y-102880952D01*
X122690476Y-103023809D01*
X122642857Y-103214285D01*
X122595238Y-103309523D01*
X122500000Y-103404761D01*
X122357142Y-103452380D01*
X122119047Y-103452380D01*
X123547619Y-102785714D02*
X123547619Y-103452380D01*
X123309523Y-102404761D02*
X123071428Y-103119047D01*
X123690476Y-103119047D01*
X113880952Y-103452380D02*
X113404761Y-103452380D01*
X113404761Y-102452380D01*
X114214285Y-102928571D02*
X114547619Y-102928571D01*
X114690476Y-103452380D02*
X114214285Y-103452380D01*
X114214285Y-102452380D01*
X114690476Y-102452380D01*
X115119047Y-103452380D02*
X115119047Y-102452380D01*
X115357142Y-102452380D01*
X115500000Y-102500000D01*
X115595238Y-102595238D01*
X115642857Y-102690476D01*
X115690476Y-102880952D01*
X115690476Y-103023809D01*
X115642857Y-103214285D01*
X115595238Y-103309523D01*
X115500000Y-103404761D01*
X115357142Y-103452380D01*
X115119047Y-103452380D01*
X116023809Y-102452380D02*
X116642857Y-102452380D01*
X116309523Y-102833333D01*
X116452380Y-102833333D01*
X116547619Y-102880952D01*
X116595238Y-102928571D01*
X116642857Y-103023809D01*
X116642857Y-103261904D01*
X116595238Y-103357142D01*
X116547619Y-103404761D01*
X116452380Y-103452380D01*
X116166666Y-103452380D01*
X116071428Y-103404761D01*
X116023809Y-103357142D01*
X106880952Y-103452380D02*
X106404761Y-103452380D01*
X106404761Y-102452380D01*
X107214285Y-102928571D02*
X107547619Y-102928571D01*
X107690476Y-103452380D02*
X107214285Y-103452380D01*
X107214285Y-102452380D01*
X107690476Y-102452380D01*
X108119047Y-103452380D02*
X108119047Y-102452380D01*
X108357142Y-102452380D01*
X108500000Y-102500000D01*
X108595238Y-102595238D01*
X108642857Y-102690476D01*
X108690476Y-102880952D01*
X108690476Y-103023809D01*
X108642857Y-103214285D01*
X108595238Y-103309523D01*
X108500000Y-103404761D01*
X108357142Y-103452380D01*
X108119047Y-103452380D01*
X109071428Y-102547619D02*
X109119047Y-102500000D01*
X109214285Y-102452380D01*
X109452380Y-102452380D01*
X109547619Y-102500000D01*
X109595238Y-102547619D01*
X109642857Y-102642857D01*
X109642857Y-102738095D01*
X109595238Y-102880952D01*
X109023809Y-103452380D01*
X109642857Y-103452380D01*
X99880952Y-103452380D02*
X99404761Y-103452380D01*
X99404761Y-102452380D01*
X100214285Y-102928571D02*
X100547619Y-102928571D01*
X100690476Y-103452380D02*
X100214285Y-103452380D01*
X100214285Y-102452380D01*
X100690476Y-102452380D01*
X101119047Y-103452380D02*
X101119047Y-102452380D01*
X101357142Y-102452380D01*
X101500000Y-102500000D01*
X101595238Y-102595238D01*
X101642857Y-102690476D01*
X101690476Y-102880952D01*
X101690476Y-103023809D01*
X101642857Y-103214285D01*
X101595238Y-103309523D01*
X101500000Y-103404761D01*
X101357142Y-103452380D01*
X101119047Y-103452380D01*
X102642857Y-103452380D02*
X102071428Y-103452380D01*
X102357142Y-103452380D02*
X102357142Y-102452380D01*
X102261904Y-102595238D01*
X102166666Y-102690476D01*
X102071428Y-102738095D01*
M02*
