G04 #@! TF.GenerationSoftware,KiCad,Pcbnew,5.1.5*
G04 #@! TF.CreationDate,2020-03-26T23:23:50-05:00*
G04 #@! TF.ProjectId,arduino-lab,61726475-696e-46f2-9d6c-61622e6b6963,rev?*
G04 #@! TF.SameCoordinates,Original*
G04 #@! TF.FileFunction,Soldermask,Top*
G04 #@! TF.FilePolarity,Negative*
%FSLAX46Y46*%
G04 Gerber Fmt 4.6, Leading zero omitted, Abs format (unit mm)*
G04 Created by KiCad (PCBNEW 5.1.5) date 2020-03-26 23:23:50*
%MOMM*%
%LPD*%
G04 APERTURE LIST*
%ADD10C,0.100000*%
G04 APERTURE END LIST*
D10*
G36*
X79237142Y-131218242D02*
G01*
X79385101Y-131279529D01*
X79518255Y-131368499D01*
X79631501Y-131481745D01*
X79720471Y-131614899D01*
X79781758Y-131762858D01*
X79813000Y-131919925D01*
X79813000Y-132080075D01*
X79781758Y-132237142D01*
X79720471Y-132385101D01*
X79631501Y-132518255D01*
X79518255Y-132631501D01*
X79385101Y-132720471D01*
X79237142Y-132781758D01*
X79080075Y-132813000D01*
X78919925Y-132813000D01*
X78762858Y-132781758D01*
X78614899Y-132720471D01*
X78481745Y-132631501D01*
X78368499Y-132518255D01*
X78279529Y-132385101D01*
X78218242Y-132237142D01*
X78187000Y-132080075D01*
X78187000Y-131919925D01*
X78218242Y-131762858D01*
X78279529Y-131614899D01*
X78368499Y-131481745D01*
X78481745Y-131368499D01*
X78614899Y-131279529D01*
X78762858Y-131218242D01*
X78919925Y-131187000D01*
X79080075Y-131187000D01*
X79237142Y-131218242D01*
G37*
G36*
X77237142Y-131218242D02*
G01*
X77385101Y-131279529D01*
X77518255Y-131368499D01*
X77631501Y-131481745D01*
X77720471Y-131614899D01*
X77781758Y-131762858D01*
X77813000Y-131919925D01*
X77813000Y-132080075D01*
X77781758Y-132237142D01*
X77720471Y-132385101D01*
X77631501Y-132518255D01*
X77518255Y-132631501D01*
X77385101Y-132720471D01*
X77237142Y-132781758D01*
X77080075Y-132813000D01*
X76919925Y-132813000D01*
X76762858Y-132781758D01*
X76614899Y-132720471D01*
X76481745Y-132631501D01*
X76368499Y-132518255D01*
X76279529Y-132385101D01*
X76218242Y-132237142D01*
X76187000Y-132080075D01*
X76187000Y-131919925D01*
X76218242Y-131762858D01*
X76279529Y-131614899D01*
X76368499Y-131481745D01*
X76481745Y-131368499D01*
X76614899Y-131279529D01*
X76762858Y-131218242D01*
X76919925Y-131187000D01*
X77080075Y-131187000D01*
X77237142Y-131218242D01*
G37*
G36*
X75237142Y-131218242D02*
G01*
X75385101Y-131279529D01*
X75518255Y-131368499D01*
X75631501Y-131481745D01*
X75720471Y-131614899D01*
X75781758Y-131762858D01*
X75813000Y-131919925D01*
X75813000Y-132080075D01*
X75781758Y-132237142D01*
X75720471Y-132385101D01*
X75631501Y-132518255D01*
X75518255Y-132631501D01*
X75385101Y-132720471D01*
X75237142Y-132781758D01*
X75080075Y-132813000D01*
X74919925Y-132813000D01*
X74762858Y-132781758D01*
X74614899Y-132720471D01*
X74481745Y-132631501D01*
X74368499Y-132518255D01*
X74279529Y-132385101D01*
X74218242Y-132237142D01*
X74187000Y-132080075D01*
X74187000Y-131919925D01*
X74218242Y-131762858D01*
X74279529Y-131614899D01*
X74368499Y-131481745D01*
X74481745Y-131368499D01*
X74614899Y-131279529D01*
X74762858Y-131218242D01*
X74919925Y-131187000D01*
X75080075Y-131187000D01*
X75237142Y-131218242D01*
G37*
G36*
X71237142Y-128218242D02*
G01*
X71385101Y-128279529D01*
X71518255Y-128368499D01*
X71631501Y-128481745D01*
X71720471Y-128614899D01*
X71781758Y-128762858D01*
X71813000Y-128919925D01*
X71813000Y-129080075D01*
X71781758Y-129237142D01*
X71720471Y-129385101D01*
X71631501Y-129518255D01*
X71518255Y-129631501D01*
X71385101Y-129720471D01*
X71237142Y-129781758D01*
X71080075Y-129813000D01*
X70919925Y-129813000D01*
X70762858Y-129781758D01*
X70614899Y-129720471D01*
X70481745Y-129631501D01*
X70368499Y-129518255D01*
X70279529Y-129385101D01*
X70218242Y-129237142D01*
X70187000Y-129080075D01*
X70187000Y-128919925D01*
X70218242Y-128762858D01*
X70279529Y-128614899D01*
X70368499Y-128481745D01*
X70481745Y-128368499D01*
X70614899Y-128279529D01*
X70762858Y-128218242D01*
X70919925Y-128187000D01*
X71080075Y-128187000D01*
X71237142Y-128218242D01*
G37*
G36*
X107806564Y-123989389D02*
G01*
X107997833Y-124068615D01*
X107997835Y-124068616D01*
X108169973Y-124183635D01*
X108316365Y-124330027D01*
X108417740Y-124481745D01*
X108431385Y-124502167D01*
X108510611Y-124693436D01*
X108551000Y-124896484D01*
X108551000Y-125103516D01*
X108510611Y-125306564D01*
X108478080Y-125385100D01*
X108431384Y-125497835D01*
X108316365Y-125669973D01*
X108169973Y-125816365D01*
X107997835Y-125931384D01*
X107997834Y-125931385D01*
X107997833Y-125931385D01*
X107806564Y-126010611D01*
X107603516Y-126051000D01*
X107396484Y-126051000D01*
X107193436Y-126010611D01*
X107002167Y-125931385D01*
X107002166Y-125931385D01*
X107002165Y-125931384D01*
X106830027Y-125816365D01*
X106683635Y-125669973D01*
X106568616Y-125497835D01*
X106521920Y-125385100D01*
X106489389Y-125306564D01*
X106449000Y-125103516D01*
X106449000Y-124896484D01*
X106489389Y-124693436D01*
X106568615Y-124502167D01*
X106582261Y-124481745D01*
X106683635Y-124330027D01*
X106830027Y-124183635D01*
X107002165Y-124068616D01*
X107002167Y-124068615D01*
X107193436Y-123989389D01*
X107396484Y-123949000D01*
X107603516Y-123949000D01*
X107806564Y-123989389D01*
G37*
G36*
X118306564Y-123989389D02*
G01*
X118497833Y-124068615D01*
X118497835Y-124068616D01*
X118669973Y-124183635D01*
X118816365Y-124330027D01*
X118917740Y-124481745D01*
X118931385Y-124502167D01*
X119010611Y-124693436D01*
X119051000Y-124896484D01*
X119051000Y-125103516D01*
X119010611Y-125306564D01*
X118978080Y-125385100D01*
X118931384Y-125497835D01*
X118816365Y-125669973D01*
X118669973Y-125816365D01*
X118497835Y-125931384D01*
X118497834Y-125931385D01*
X118497833Y-125931385D01*
X118306564Y-126010611D01*
X118103516Y-126051000D01*
X117896484Y-126051000D01*
X117693436Y-126010611D01*
X117502167Y-125931385D01*
X117502166Y-125931385D01*
X117502165Y-125931384D01*
X117330027Y-125816365D01*
X117183635Y-125669973D01*
X117068616Y-125497835D01*
X117021920Y-125385100D01*
X116989389Y-125306564D01*
X116949000Y-125103516D01*
X116949000Y-124896484D01*
X116989389Y-124693436D01*
X117068615Y-124502167D01*
X117082261Y-124481745D01*
X117183635Y-124330027D01*
X117330027Y-124183635D01*
X117502165Y-124068616D01*
X117502167Y-124068615D01*
X117693436Y-123989389D01*
X117896484Y-123949000D01*
X118103516Y-123949000D01*
X118306564Y-123989389D01*
G37*
G36*
X124806564Y-123989389D02*
G01*
X124997833Y-124068615D01*
X124997835Y-124068616D01*
X125169973Y-124183635D01*
X125316365Y-124330027D01*
X125417740Y-124481745D01*
X125431385Y-124502167D01*
X125510611Y-124693436D01*
X125551000Y-124896484D01*
X125551000Y-125103516D01*
X125510611Y-125306564D01*
X125478080Y-125385100D01*
X125431384Y-125497835D01*
X125316365Y-125669973D01*
X125169973Y-125816365D01*
X124997835Y-125931384D01*
X124997834Y-125931385D01*
X124997833Y-125931385D01*
X124806564Y-126010611D01*
X124603516Y-126051000D01*
X124396484Y-126051000D01*
X124193436Y-126010611D01*
X124002167Y-125931385D01*
X124002166Y-125931385D01*
X124002165Y-125931384D01*
X123830027Y-125816365D01*
X123683635Y-125669973D01*
X123568616Y-125497835D01*
X123521920Y-125385100D01*
X123489389Y-125306564D01*
X123449000Y-125103516D01*
X123449000Y-124896484D01*
X123489389Y-124693436D01*
X123568615Y-124502167D01*
X123582261Y-124481745D01*
X123683635Y-124330027D01*
X123830027Y-124183635D01*
X124002165Y-124068616D01*
X124002167Y-124068615D01*
X124193436Y-123989389D01*
X124396484Y-123949000D01*
X124603516Y-123949000D01*
X124806564Y-123989389D01*
G37*
G36*
X101306564Y-123989389D02*
G01*
X101497833Y-124068615D01*
X101497835Y-124068616D01*
X101669973Y-124183635D01*
X101816365Y-124330027D01*
X101917740Y-124481745D01*
X101931385Y-124502167D01*
X102010611Y-124693436D01*
X102051000Y-124896484D01*
X102051000Y-125103516D01*
X102010611Y-125306564D01*
X101978080Y-125385100D01*
X101931384Y-125497835D01*
X101816365Y-125669973D01*
X101669973Y-125816365D01*
X101497835Y-125931384D01*
X101497834Y-125931385D01*
X101497833Y-125931385D01*
X101306564Y-126010611D01*
X101103516Y-126051000D01*
X100896484Y-126051000D01*
X100693436Y-126010611D01*
X100502167Y-125931385D01*
X100502166Y-125931385D01*
X100502165Y-125931384D01*
X100330027Y-125816365D01*
X100183635Y-125669973D01*
X100068616Y-125497835D01*
X100021920Y-125385100D01*
X99989389Y-125306564D01*
X99949000Y-125103516D01*
X99949000Y-124896484D01*
X99989389Y-124693436D01*
X100068615Y-124502167D01*
X100082261Y-124481745D01*
X100183635Y-124330027D01*
X100330027Y-124183635D01*
X100502165Y-124068616D01*
X100502167Y-124068615D01*
X100693436Y-123989389D01*
X100896484Y-123949000D01*
X101103516Y-123949000D01*
X101306564Y-123989389D01*
G37*
G36*
X86237142Y-124218242D02*
G01*
X86385101Y-124279529D01*
X86518255Y-124368499D01*
X86631501Y-124481745D01*
X86720471Y-124614899D01*
X86781758Y-124762858D01*
X86813000Y-124919925D01*
X86813000Y-125080075D01*
X86781758Y-125237142D01*
X86720471Y-125385101D01*
X86631501Y-125518255D01*
X86518255Y-125631501D01*
X86385101Y-125720471D01*
X86237142Y-125781758D01*
X86080075Y-125813000D01*
X85919925Y-125813000D01*
X85762858Y-125781758D01*
X85614899Y-125720471D01*
X85481745Y-125631501D01*
X85368499Y-125518255D01*
X85279529Y-125385101D01*
X85218242Y-125237142D01*
X85187000Y-125080075D01*
X85187000Y-124919925D01*
X85218242Y-124762858D01*
X85279529Y-124614899D01*
X85368499Y-124481745D01*
X85481745Y-124368499D01*
X85614899Y-124279529D01*
X85762858Y-124218242D01*
X85919925Y-124187000D01*
X86080075Y-124187000D01*
X86237142Y-124218242D01*
G37*
G36*
X86237142Y-122218242D02*
G01*
X86385101Y-122279529D01*
X86518255Y-122368499D01*
X86631501Y-122481745D01*
X86720471Y-122614899D01*
X86781758Y-122762858D01*
X86813000Y-122919925D01*
X86813000Y-123080075D01*
X86781758Y-123237142D01*
X86720471Y-123385101D01*
X86631501Y-123518255D01*
X86518255Y-123631501D01*
X86385101Y-123720471D01*
X86237142Y-123781758D01*
X86080075Y-123813000D01*
X85919925Y-123813000D01*
X85762858Y-123781758D01*
X85614899Y-123720471D01*
X85481745Y-123631501D01*
X85368499Y-123518255D01*
X85279529Y-123385101D01*
X85218242Y-123237142D01*
X85187000Y-123080075D01*
X85187000Y-122919925D01*
X85218242Y-122762858D01*
X85279529Y-122614899D01*
X85368499Y-122481745D01*
X85481745Y-122368499D01*
X85614899Y-122279529D01*
X85762858Y-122218242D01*
X85919925Y-122187000D01*
X86080075Y-122187000D01*
X86237142Y-122218242D01*
G37*
G36*
X86237142Y-120218242D02*
G01*
X86385101Y-120279529D01*
X86518255Y-120368499D01*
X86631501Y-120481745D01*
X86720471Y-120614899D01*
X86781758Y-120762858D01*
X86813000Y-120919925D01*
X86813000Y-121080075D01*
X86781758Y-121237142D01*
X86720471Y-121385101D01*
X86631501Y-121518255D01*
X86518255Y-121631501D01*
X86385101Y-121720471D01*
X86237142Y-121781758D01*
X86080075Y-121813000D01*
X85919925Y-121813000D01*
X85762858Y-121781758D01*
X85614899Y-121720471D01*
X85481745Y-121631501D01*
X85368499Y-121518255D01*
X85279529Y-121385101D01*
X85218242Y-121237142D01*
X85187000Y-121080075D01*
X85187000Y-120919925D01*
X85218242Y-120762858D01*
X85279529Y-120614899D01*
X85368499Y-120481745D01*
X85481745Y-120368499D01*
X85614899Y-120279529D01*
X85762858Y-120218242D01*
X85919925Y-120187000D01*
X86080075Y-120187000D01*
X86237142Y-120218242D01*
G37*
G36*
X101306564Y-119489389D02*
G01*
X101497833Y-119568615D01*
X101497835Y-119568616D01*
X101669973Y-119683635D01*
X101816365Y-119830027D01*
X101931385Y-120002167D01*
X102010611Y-120193436D01*
X102051000Y-120396484D01*
X102051000Y-120603516D01*
X102010611Y-120806564D01*
X101963655Y-120919925D01*
X101931384Y-120997835D01*
X101816365Y-121169973D01*
X101669973Y-121316365D01*
X101497835Y-121431384D01*
X101497834Y-121431385D01*
X101497833Y-121431385D01*
X101306564Y-121510611D01*
X101103516Y-121551000D01*
X100896484Y-121551000D01*
X100693436Y-121510611D01*
X100502167Y-121431385D01*
X100502166Y-121431385D01*
X100502165Y-121431384D01*
X100330027Y-121316365D01*
X100183635Y-121169973D01*
X100068616Y-120997835D01*
X100036345Y-120919925D01*
X99989389Y-120806564D01*
X99949000Y-120603516D01*
X99949000Y-120396484D01*
X99989389Y-120193436D01*
X100068615Y-120002167D01*
X100183635Y-119830027D01*
X100330027Y-119683635D01*
X100502165Y-119568616D01*
X100502167Y-119568615D01*
X100693436Y-119489389D01*
X100896484Y-119449000D01*
X101103516Y-119449000D01*
X101306564Y-119489389D01*
G37*
G36*
X118306564Y-119489389D02*
G01*
X118497833Y-119568615D01*
X118497835Y-119568616D01*
X118669973Y-119683635D01*
X118816365Y-119830027D01*
X118931385Y-120002167D01*
X119010611Y-120193436D01*
X119051000Y-120396484D01*
X119051000Y-120603516D01*
X119010611Y-120806564D01*
X118963655Y-120919925D01*
X118931384Y-120997835D01*
X118816365Y-121169973D01*
X118669973Y-121316365D01*
X118497835Y-121431384D01*
X118497834Y-121431385D01*
X118497833Y-121431385D01*
X118306564Y-121510611D01*
X118103516Y-121551000D01*
X117896484Y-121551000D01*
X117693436Y-121510611D01*
X117502167Y-121431385D01*
X117502166Y-121431385D01*
X117502165Y-121431384D01*
X117330027Y-121316365D01*
X117183635Y-121169973D01*
X117068616Y-120997835D01*
X117036345Y-120919925D01*
X116989389Y-120806564D01*
X116949000Y-120603516D01*
X116949000Y-120396484D01*
X116989389Y-120193436D01*
X117068615Y-120002167D01*
X117183635Y-119830027D01*
X117330027Y-119683635D01*
X117502165Y-119568616D01*
X117502167Y-119568615D01*
X117693436Y-119489389D01*
X117896484Y-119449000D01*
X118103516Y-119449000D01*
X118306564Y-119489389D01*
G37*
G36*
X107806564Y-119489389D02*
G01*
X107997833Y-119568615D01*
X107997835Y-119568616D01*
X108169973Y-119683635D01*
X108316365Y-119830027D01*
X108431385Y-120002167D01*
X108510611Y-120193436D01*
X108551000Y-120396484D01*
X108551000Y-120603516D01*
X108510611Y-120806564D01*
X108463655Y-120919925D01*
X108431384Y-120997835D01*
X108316365Y-121169973D01*
X108169973Y-121316365D01*
X107997835Y-121431384D01*
X107997834Y-121431385D01*
X107997833Y-121431385D01*
X107806564Y-121510611D01*
X107603516Y-121551000D01*
X107396484Y-121551000D01*
X107193436Y-121510611D01*
X107002167Y-121431385D01*
X107002166Y-121431385D01*
X107002165Y-121431384D01*
X106830027Y-121316365D01*
X106683635Y-121169973D01*
X106568616Y-120997835D01*
X106536345Y-120919925D01*
X106489389Y-120806564D01*
X106449000Y-120603516D01*
X106449000Y-120396484D01*
X106489389Y-120193436D01*
X106568615Y-120002167D01*
X106683635Y-119830027D01*
X106830027Y-119683635D01*
X107002165Y-119568616D01*
X107002167Y-119568615D01*
X107193436Y-119489389D01*
X107396484Y-119449000D01*
X107603516Y-119449000D01*
X107806564Y-119489389D01*
G37*
G36*
X124806564Y-119489389D02*
G01*
X124997833Y-119568615D01*
X124997835Y-119568616D01*
X125169973Y-119683635D01*
X125316365Y-119830027D01*
X125431385Y-120002167D01*
X125510611Y-120193436D01*
X125551000Y-120396484D01*
X125551000Y-120603516D01*
X125510611Y-120806564D01*
X125463655Y-120919925D01*
X125431384Y-120997835D01*
X125316365Y-121169973D01*
X125169973Y-121316365D01*
X124997835Y-121431384D01*
X124997834Y-121431385D01*
X124997833Y-121431385D01*
X124806564Y-121510611D01*
X124603516Y-121551000D01*
X124396484Y-121551000D01*
X124193436Y-121510611D01*
X124002167Y-121431385D01*
X124002166Y-121431385D01*
X124002165Y-121431384D01*
X123830027Y-121316365D01*
X123683635Y-121169973D01*
X123568616Y-120997835D01*
X123536345Y-120919925D01*
X123489389Y-120806564D01*
X123449000Y-120603516D01*
X123449000Y-120396484D01*
X123489389Y-120193436D01*
X123568615Y-120002167D01*
X123683635Y-119830027D01*
X123830027Y-119683635D01*
X124002165Y-119568616D01*
X124002167Y-119568615D01*
X124193436Y-119489389D01*
X124396484Y-119449000D01*
X124603516Y-119449000D01*
X124806564Y-119489389D01*
G37*
G36*
X83237142Y-116218242D02*
G01*
X83385101Y-116279529D01*
X83518255Y-116368499D01*
X83631501Y-116481745D01*
X83720471Y-116614899D01*
X83781758Y-116762858D01*
X83813000Y-116919925D01*
X83813000Y-117080075D01*
X83781758Y-117237142D01*
X83720471Y-117385101D01*
X83631501Y-117518255D01*
X83518255Y-117631501D01*
X83385101Y-117720471D01*
X83237142Y-117781758D01*
X83080075Y-117813000D01*
X82919925Y-117813000D01*
X82762858Y-117781758D01*
X82614899Y-117720471D01*
X82481745Y-117631501D01*
X82368499Y-117518255D01*
X82279529Y-117385101D01*
X82218242Y-117237142D01*
X82187000Y-117080075D01*
X82187000Y-116919925D01*
X82218242Y-116762858D01*
X82279529Y-116614899D01*
X82368499Y-116481745D01*
X82481745Y-116368499D01*
X82614899Y-116279529D01*
X82762858Y-116218242D01*
X82919925Y-116187000D01*
X83080075Y-116187000D01*
X83237142Y-116218242D01*
G37*
G36*
X79345256Y-109851298D02*
G01*
X79451579Y-109872447D01*
X79752042Y-109996903D01*
X80022451Y-110177585D01*
X80252415Y-110407549D01*
X80433097Y-110677958D01*
X80433098Y-110677960D01*
X80557553Y-110978422D01*
X80621000Y-111297389D01*
X80621000Y-111622611D01*
X80557553Y-111941578D01*
X80462766Y-112170416D01*
X80433097Y-112242042D01*
X80252415Y-112512451D01*
X80022451Y-112742415D01*
X79752042Y-112923097D01*
X79451579Y-113047553D01*
X79345256Y-113068702D01*
X79132611Y-113111000D01*
X78807389Y-113111000D01*
X78594744Y-113068702D01*
X78488421Y-113047553D01*
X78187958Y-112923097D01*
X77917549Y-112742415D01*
X77687585Y-112512451D01*
X77506903Y-112242042D01*
X77477235Y-112170416D01*
X77382447Y-111941578D01*
X77319000Y-111622611D01*
X77319000Y-111297389D01*
X77382447Y-110978422D01*
X77506902Y-110677960D01*
X77506903Y-110677958D01*
X77687585Y-110407549D01*
X77917549Y-110177585D01*
X78187958Y-109996903D01*
X78488421Y-109872447D01*
X78594744Y-109851298D01*
X78807389Y-109809000D01*
X79132611Y-109809000D01*
X79345256Y-109851298D01*
G37*
G36*
X110986778Y-110580547D02*
G01*
X111153224Y-110649491D01*
X111303022Y-110749583D01*
X111430417Y-110876978D01*
X111530509Y-111026776D01*
X111599453Y-111193222D01*
X111634600Y-111369918D01*
X111634600Y-111550082D01*
X111599453Y-111726778D01*
X111530509Y-111893224D01*
X111430417Y-112043022D01*
X111303022Y-112170417D01*
X111153224Y-112270509D01*
X110986778Y-112339453D01*
X110810082Y-112374600D01*
X110629918Y-112374600D01*
X110453222Y-112339453D01*
X110286776Y-112270509D01*
X110136978Y-112170417D01*
X110009583Y-112043022D01*
X109909491Y-111893224D01*
X109840547Y-111726778D01*
X109805400Y-111550082D01*
X109805400Y-111369918D01*
X109840547Y-111193222D01*
X109909491Y-111026776D01*
X110009583Y-110876978D01*
X110136978Y-110749583D01*
X110286776Y-110649491D01*
X110453222Y-110580547D01*
X110629918Y-110545400D01*
X110810082Y-110545400D01*
X110986778Y-110580547D01*
G37*
G36*
X126226778Y-110580547D02*
G01*
X126393224Y-110649491D01*
X126543022Y-110749583D01*
X126670417Y-110876978D01*
X126770509Y-111026776D01*
X126839453Y-111193222D01*
X126874600Y-111369918D01*
X126874600Y-111550082D01*
X126839453Y-111726778D01*
X126770509Y-111893224D01*
X126670417Y-112043022D01*
X126543022Y-112170417D01*
X126393224Y-112270509D01*
X126226778Y-112339453D01*
X126050082Y-112374600D01*
X125869918Y-112374600D01*
X125693222Y-112339453D01*
X125526776Y-112270509D01*
X125376978Y-112170417D01*
X125249583Y-112043022D01*
X125149491Y-111893224D01*
X125080547Y-111726778D01*
X125045400Y-111550082D01*
X125045400Y-111369918D01*
X125080547Y-111193222D01*
X125149491Y-111026776D01*
X125249583Y-110876978D01*
X125376978Y-110749583D01*
X125526776Y-110649491D01*
X125693222Y-110580547D01*
X125869918Y-110545400D01*
X126050082Y-110545400D01*
X126226778Y-110580547D01*
G37*
G36*
X123686778Y-110580547D02*
G01*
X123853224Y-110649491D01*
X124003022Y-110749583D01*
X124130417Y-110876978D01*
X124230509Y-111026776D01*
X124299453Y-111193222D01*
X124334600Y-111369918D01*
X124334600Y-111550082D01*
X124299453Y-111726778D01*
X124230509Y-111893224D01*
X124130417Y-112043022D01*
X124003022Y-112170417D01*
X123853224Y-112270509D01*
X123686778Y-112339453D01*
X123510082Y-112374600D01*
X123329918Y-112374600D01*
X123153222Y-112339453D01*
X122986776Y-112270509D01*
X122836978Y-112170417D01*
X122709583Y-112043022D01*
X122609491Y-111893224D01*
X122540547Y-111726778D01*
X122505400Y-111550082D01*
X122505400Y-111369918D01*
X122540547Y-111193222D01*
X122609491Y-111026776D01*
X122709583Y-110876978D01*
X122836978Y-110749583D01*
X122986776Y-110649491D01*
X123153222Y-110580547D01*
X123329918Y-110545400D01*
X123510082Y-110545400D01*
X123686778Y-110580547D01*
G37*
G36*
X121146778Y-110580547D02*
G01*
X121313224Y-110649491D01*
X121463022Y-110749583D01*
X121590417Y-110876978D01*
X121690509Y-111026776D01*
X121759453Y-111193222D01*
X121794600Y-111369918D01*
X121794600Y-111550082D01*
X121759453Y-111726778D01*
X121690509Y-111893224D01*
X121590417Y-112043022D01*
X121463022Y-112170417D01*
X121313224Y-112270509D01*
X121146778Y-112339453D01*
X120970082Y-112374600D01*
X120789918Y-112374600D01*
X120613222Y-112339453D01*
X120446776Y-112270509D01*
X120296978Y-112170417D01*
X120169583Y-112043022D01*
X120069491Y-111893224D01*
X120000547Y-111726778D01*
X119965400Y-111550082D01*
X119965400Y-111369918D01*
X120000547Y-111193222D01*
X120069491Y-111026776D01*
X120169583Y-110876978D01*
X120296978Y-110749583D01*
X120446776Y-110649491D01*
X120613222Y-110580547D01*
X120789918Y-110545400D01*
X120970082Y-110545400D01*
X121146778Y-110580547D01*
G37*
G36*
X118606778Y-110580547D02*
G01*
X118773224Y-110649491D01*
X118923022Y-110749583D01*
X119050417Y-110876978D01*
X119150509Y-111026776D01*
X119219453Y-111193222D01*
X119254600Y-111369918D01*
X119254600Y-111550082D01*
X119219453Y-111726778D01*
X119150509Y-111893224D01*
X119050417Y-112043022D01*
X118923022Y-112170417D01*
X118773224Y-112270509D01*
X118606778Y-112339453D01*
X118430082Y-112374600D01*
X118249918Y-112374600D01*
X118073222Y-112339453D01*
X117906776Y-112270509D01*
X117756978Y-112170417D01*
X117629583Y-112043022D01*
X117529491Y-111893224D01*
X117460547Y-111726778D01*
X117425400Y-111550082D01*
X117425400Y-111369918D01*
X117460547Y-111193222D01*
X117529491Y-111026776D01*
X117629583Y-110876978D01*
X117756978Y-110749583D01*
X117906776Y-110649491D01*
X118073222Y-110580547D01*
X118249918Y-110545400D01*
X118430082Y-110545400D01*
X118606778Y-110580547D01*
G37*
G36*
X93206778Y-110580547D02*
G01*
X93373224Y-110649491D01*
X93523022Y-110749583D01*
X93650417Y-110876978D01*
X93750509Y-111026776D01*
X93819453Y-111193222D01*
X93854600Y-111369918D01*
X93854600Y-111550082D01*
X93819453Y-111726778D01*
X93750509Y-111893224D01*
X93650417Y-112043022D01*
X93523022Y-112170417D01*
X93373224Y-112270509D01*
X93206778Y-112339453D01*
X93030082Y-112374600D01*
X92849918Y-112374600D01*
X92673222Y-112339453D01*
X92506776Y-112270509D01*
X92356978Y-112170417D01*
X92229583Y-112043022D01*
X92129491Y-111893224D01*
X92060547Y-111726778D01*
X92025400Y-111550082D01*
X92025400Y-111369918D01*
X92060547Y-111193222D01*
X92129491Y-111026776D01*
X92229583Y-110876978D01*
X92356978Y-110749583D01*
X92506776Y-110649491D01*
X92673222Y-110580547D01*
X92849918Y-110545400D01*
X93030082Y-110545400D01*
X93206778Y-110580547D01*
G37*
G36*
X95746778Y-110580547D02*
G01*
X95913224Y-110649491D01*
X96063022Y-110749583D01*
X96190417Y-110876978D01*
X96290509Y-111026776D01*
X96359453Y-111193222D01*
X96394600Y-111369918D01*
X96394600Y-111550082D01*
X96359453Y-111726778D01*
X96290509Y-111893224D01*
X96190417Y-112043022D01*
X96063022Y-112170417D01*
X95913224Y-112270509D01*
X95746778Y-112339453D01*
X95570082Y-112374600D01*
X95389918Y-112374600D01*
X95213222Y-112339453D01*
X95046776Y-112270509D01*
X94896978Y-112170417D01*
X94769583Y-112043022D01*
X94669491Y-111893224D01*
X94600547Y-111726778D01*
X94565400Y-111550082D01*
X94565400Y-111369918D01*
X94600547Y-111193222D01*
X94669491Y-111026776D01*
X94769583Y-110876978D01*
X94896978Y-110749583D01*
X95046776Y-110649491D01*
X95213222Y-110580547D01*
X95389918Y-110545400D01*
X95570082Y-110545400D01*
X95746778Y-110580547D01*
G37*
G36*
X98286778Y-110580547D02*
G01*
X98453224Y-110649491D01*
X98603022Y-110749583D01*
X98730417Y-110876978D01*
X98830509Y-111026776D01*
X98899453Y-111193222D01*
X98934600Y-111369918D01*
X98934600Y-111550082D01*
X98899453Y-111726778D01*
X98830509Y-111893224D01*
X98730417Y-112043022D01*
X98603022Y-112170417D01*
X98453224Y-112270509D01*
X98286778Y-112339453D01*
X98110082Y-112374600D01*
X97929918Y-112374600D01*
X97753222Y-112339453D01*
X97586776Y-112270509D01*
X97436978Y-112170417D01*
X97309583Y-112043022D01*
X97209491Y-111893224D01*
X97140547Y-111726778D01*
X97105400Y-111550082D01*
X97105400Y-111369918D01*
X97140547Y-111193222D01*
X97209491Y-111026776D01*
X97309583Y-110876978D01*
X97436978Y-110749583D01*
X97586776Y-110649491D01*
X97753222Y-110580547D01*
X97929918Y-110545400D01*
X98110082Y-110545400D01*
X98286778Y-110580547D01*
G37*
G36*
X100826778Y-110580547D02*
G01*
X100993224Y-110649491D01*
X101143022Y-110749583D01*
X101270417Y-110876978D01*
X101370509Y-111026776D01*
X101439453Y-111193222D01*
X101474600Y-111369918D01*
X101474600Y-111550082D01*
X101439453Y-111726778D01*
X101370509Y-111893224D01*
X101270417Y-112043022D01*
X101143022Y-112170417D01*
X100993224Y-112270509D01*
X100826778Y-112339453D01*
X100650082Y-112374600D01*
X100469918Y-112374600D01*
X100293222Y-112339453D01*
X100126776Y-112270509D01*
X99976978Y-112170417D01*
X99849583Y-112043022D01*
X99749491Y-111893224D01*
X99680547Y-111726778D01*
X99645400Y-111550082D01*
X99645400Y-111369918D01*
X99680547Y-111193222D01*
X99749491Y-111026776D01*
X99849583Y-110876978D01*
X99976978Y-110749583D01*
X100126776Y-110649491D01*
X100293222Y-110580547D01*
X100469918Y-110545400D01*
X100650082Y-110545400D01*
X100826778Y-110580547D01*
G37*
G36*
X103366778Y-110580547D02*
G01*
X103533224Y-110649491D01*
X103683022Y-110749583D01*
X103810417Y-110876978D01*
X103910509Y-111026776D01*
X103979453Y-111193222D01*
X104014600Y-111369918D01*
X104014600Y-111550082D01*
X103979453Y-111726778D01*
X103910509Y-111893224D01*
X103810417Y-112043022D01*
X103683022Y-112170417D01*
X103533224Y-112270509D01*
X103366778Y-112339453D01*
X103190082Y-112374600D01*
X103009918Y-112374600D01*
X102833222Y-112339453D01*
X102666776Y-112270509D01*
X102516978Y-112170417D01*
X102389583Y-112043022D01*
X102289491Y-111893224D01*
X102220547Y-111726778D01*
X102185400Y-111550082D01*
X102185400Y-111369918D01*
X102220547Y-111193222D01*
X102289491Y-111026776D01*
X102389583Y-110876978D01*
X102516978Y-110749583D01*
X102666776Y-110649491D01*
X102833222Y-110580547D01*
X103009918Y-110545400D01*
X103190082Y-110545400D01*
X103366778Y-110580547D01*
G37*
G36*
X105906778Y-110580547D02*
G01*
X106073224Y-110649491D01*
X106223022Y-110749583D01*
X106350417Y-110876978D01*
X106450509Y-111026776D01*
X106519453Y-111193222D01*
X106554600Y-111369918D01*
X106554600Y-111550082D01*
X106519453Y-111726778D01*
X106450509Y-111893224D01*
X106350417Y-112043022D01*
X106223022Y-112170417D01*
X106073224Y-112270509D01*
X105906778Y-112339453D01*
X105730082Y-112374600D01*
X105549918Y-112374600D01*
X105373222Y-112339453D01*
X105206776Y-112270509D01*
X105056978Y-112170417D01*
X104929583Y-112043022D01*
X104829491Y-111893224D01*
X104760547Y-111726778D01*
X104725400Y-111550082D01*
X104725400Y-111369918D01*
X104760547Y-111193222D01*
X104829491Y-111026776D01*
X104929583Y-110876978D01*
X105056978Y-110749583D01*
X105206776Y-110649491D01*
X105373222Y-110580547D01*
X105549918Y-110545400D01*
X105730082Y-110545400D01*
X105906778Y-110580547D01*
G37*
G36*
X108446778Y-110580547D02*
G01*
X108613224Y-110649491D01*
X108763022Y-110749583D01*
X108890417Y-110876978D01*
X108990509Y-111026776D01*
X109059453Y-111193222D01*
X109094600Y-111369918D01*
X109094600Y-111550082D01*
X109059453Y-111726778D01*
X108990509Y-111893224D01*
X108890417Y-112043022D01*
X108763022Y-112170417D01*
X108613224Y-112270509D01*
X108446778Y-112339453D01*
X108270082Y-112374600D01*
X108089918Y-112374600D01*
X107913222Y-112339453D01*
X107746776Y-112270509D01*
X107596978Y-112170417D01*
X107469583Y-112043022D01*
X107369491Y-111893224D01*
X107300547Y-111726778D01*
X107265400Y-111550082D01*
X107265400Y-111369918D01*
X107300547Y-111193222D01*
X107369491Y-111026776D01*
X107469583Y-110876978D01*
X107596978Y-110749583D01*
X107746776Y-110649491D01*
X107913222Y-110580547D01*
X108089918Y-110545400D01*
X108270082Y-110545400D01*
X108446778Y-110580547D01*
G37*
G36*
X116066778Y-110580547D02*
G01*
X116233224Y-110649491D01*
X116383022Y-110749583D01*
X116510417Y-110876978D01*
X116610509Y-111026776D01*
X116679453Y-111193222D01*
X116714600Y-111369918D01*
X116714600Y-111550082D01*
X116679453Y-111726778D01*
X116610509Y-111893224D01*
X116510417Y-112043022D01*
X116383022Y-112170417D01*
X116233224Y-112270509D01*
X116066778Y-112339453D01*
X115890082Y-112374600D01*
X115709918Y-112374600D01*
X115533222Y-112339453D01*
X115366776Y-112270509D01*
X115216978Y-112170417D01*
X115089583Y-112043022D01*
X114989491Y-111893224D01*
X114920547Y-111726778D01*
X114885400Y-111550082D01*
X114885400Y-111369918D01*
X114920547Y-111193222D01*
X114989491Y-111026776D01*
X115089583Y-110876978D01*
X115216978Y-110749583D01*
X115366776Y-110649491D01*
X115533222Y-110580547D01*
X115709918Y-110545400D01*
X115890082Y-110545400D01*
X116066778Y-110580547D01*
G37*
G36*
X128766778Y-110580547D02*
G01*
X128933224Y-110649491D01*
X129083022Y-110749583D01*
X129210417Y-110876978D01*
X129310509Y-111026776D01*
X129379453Y-111193222D01*
X129414600Y-111369918D01*
X129414600Y-111550082D01*
X129379453Y-111726778D01*
X129310509Y-111893224D01*
X129210417Y-112043022D01*
X129083022Y-112170417D01*
X128933224Y-112270509D01*
X128766778Y-112339453D01*
X128590082Y-112374600D01*
X128409918Y-112374600D01*
X128233222Y-112339453D01*
X128066776Y-112270509D01*
X127916978Y-112170417D01*
X127789583Y-112043022D01*
X127689491Y-111893224D01*
X127620547Y-111726778D01*
X127585400Y-111550082D01*
X127585400Y-111369918D01*
X127620547Y-111193222D01*
X127689491Y-111026776D01*
X127789583Y-110876978D01*
X127916978Y-110749583D01*
X128066776Y-110649491D01*
X128233222Y-110580547D01*
X128409918Y-110545400D01*
X128590082Y-110545400D01*
X128766778Y-110580547D01*
G37*
G36*
X83306564Y-107489389D02*
G01*
X83497833Y-107568615D01*
X83497835Y-107568616D01*
X83649366Y-107669866D01*
X83669973Y-107683635D01*
X83816365Y-107830027D01*
X83931385Y-108002167D01*
X84010611Y-108193436D01*
X84051000Y-108396484D01*
X84051000Y-108603516D01*
X84010611Y-108806564D01*
X83931385Y-108997833D01*
X83931384Y-108997835D01*
X83816365Y-109169973D01*
X83669973Y-109316365D01*
X83497835Y-109431384D01*
X83497834Y-109431385D01*
X83497833Y-109431385D01*
X83306564Y-109510611D01*
X83103516Y-109551000D01*
X82896484Y-109551000D01*
X82693436Y-109510611D01*
X82502167Y-109431385D01*
X82502166Y-109431385D01*
X82502165Y-109431384D01*
X82330027Y-109316365D01*
X82183635Y-109169973D01*
X82068616Y-108997835D01*
X82068615Y-108997833D01*
X81989389Y-108806564D01*
X81949000Y-108603516D01*
X81949000Y-108396484D01*
X81989389Y-108193436D01*
X82068615Y-108002167D01*
X82183635Y-107830027D01*
X82330027Y-107683635D01*
X82350634Y-107669866D01*
X82502165Y-107568616D01*
X82502167Y-107568615D01*
X82693436Y-107489389D01*
X82896484Y-107449000D01*
X83103516Y-107449000D01*
X83306564Y-107489389D01*
G37*
G36*
X89806564Y-107489389D02*
G01*
X89997833Y-107568615D01*
X89997835Y-107568616D01*
X90149366Y-107669866D01*
X90169973Y-107683635D01*
X90316365Y-107830027D01*
X90431385Y-108002167D01*
X90510611Y-108193436D01*
X90551000Y-108396484D01*
X90551000Y-108603516D01*
X90510611Y-108806564D01*
X90431385Y-108997833D01*
X90431384Y-108997835D01*
X90316365Y-109169973D01*
X90169973Y-109316365D01*
X89997835Y-109431384D01*
X89997834Y-109431385D01*
X89997833Y-109431385D01*
X89806564Y-109510611D01*
X89603516Y-109551000D01*
X89396484Y-109551000D01*
X89193436Y-109510611D01*
X89002167Y-109431385D01*
X89002166Y-109431385D01*
X89002165Y-109431384D01*
X88830027Y-109316365D01*
X88683635Y-109169973D01*
X88568616Y-108997835D01*
X88568615Y-108997833D01*
X88489389Y-108806564D01*
X88449000Y-108603516D01*
X88449000Y-108396484D01*
X88489389Y-108193436D01*
X88568615Y-108002167D01*
X88683635Y-107830027D01*
X88830027Y-107683635D01*
X88850634Y-107669866D01*
X89002165Y-107568616D01*
X89002167Y-107568615D01*
X89193436Y-107489389D01*
X89396484Y-107449000D01*
X89603516Y-107449000D01*
X89806564Y-107489389D01*
G37*
G36*
X119379591Y-108303085D02*
G01*
X119413569Y-108313393D01*
X119444890Y-108330134D01*
X119472339Y-108352661D01*
X119494866Y-108380110D01*
X119511607Y-108411431D01*
X119521915Y-108445409D01*
X119526000Y-108486890D01*
X119526000Y-109088110D01*
X119521915Y-109129591D01*
X119511607Y-109163569D01*
X119494866Y-109194890D01*
X119472339Y-109222339D01*
X119444890Y-109244866D01*
X119413569Y-109261607D01*
X119379591Y-109271915D01*
X119338110Y-109276000D01*
X118661890Y-109276000D01*
X118620409Y-109271915D01*
X118586431Y-109261607D01*
X118555110Y-109244866D01*
X118527661Y-109222339D01*
X118505134Y-109194890D01*
X118488393Y-109163569D01*
X118478085Y-109129591D01*
X118474000Y-109088110D01*
X118474000Y-108486890D01*
X118478085Y-108445409D01*
X118488393Y-108411431D01*
X118505134Y-108380110D01*
X118527661Y-108352661D01*
X118555110Y-108330134D01*
X118586431Y-108313393D01*
X118620409Y-108303085D01*
X118661890Y-108299000D01*
X119338110Y-108299000D01*
X119379591Y-108303085D01*
G37*
G36*
X105379591Y-108303085D02*
G01*
X105413569Y-108313393D01*
X105444890Y-108330134D01*
X105472339Y-108352661D01*
X105494866Y-108380110D01*
X105511607Y-108411431D01*
X105521915Y-108445409D01*
X105526000Y-108486890D01*
X105526000Y-109088110D01*
X105521915Y-109129591D01*
X105511607Y-109163569D01*
X105494866Y-109194890D01*
X105472339Y-109222339D01*
X105444890Y-109244866D01*
X105413569Y-109261607D01*
X105379591Y-109271915D01*
X105338110Y-109276000D01*
X104661890Y-109276000D01*
X104620409Y-109271915D01*
X104586431Y-109261607D01*
X104555110Y-109244866D01*
X104527661Y-109222339D01*
X104505134Y-109194890D01*
X104488393Y-109163569D01*
X104478085Y-109129591D01*
X104474000Y-109088110D01*
X104474000Y-108486890D01*
X104478085Y-108445409D01*
X104488393Y-108411431D01*
X104505134Y-108380110D01*
X104527661Y-108352661D01*
X104555110Y-108330134D01*
X104586431Y-108313393D01*
X104620409Y-108303085D01*
X104661890Y-108299000D01*
X105338110Y-108299000D01*
X105379591Y-108303085D01*
G37*
G36*
X112379591Y-108303085D02*
G01*
X112413569Y-108313393D01*
X112444890Y-108330134D01*
X112472339Y-108352661D01*
X112494866Y-108380110D01*
X112511607Y-108411431D01*
X112521915Y-108445409D01*
X112526000Y-108486890D01*
X112526000Y-109088110D01*
X112521915Y-109129591D01*
X112511607Y-109163569D01*
X112494866Y-109194890D01*
X112472339Y-109222339D01*
X112444890Y-109244866D01*
X112413569Y-109261607D01*
X112379591Y-109271915D01*
X112338110Y-109276000D01*
X111661890Y-109276000D01*
X111620409Y-109271915D01*
X111586431Y-109261607D01*
X111555110Y-109244866D01*
X111527661Y-109222339D01*
X111505134Y-109194890D01*
X111488393Y-109163569D01*
X111478085Y-109129591D01*
X111474000Y-109088110D01*
X111474000Y-108486890D01*
X111478085Y-108445409D01*
X111488393Y-108411431D01*
X111505134Y-108380110D01*
X111527661Y-108352661D01*
X111555110Y-108330134D01*
X111586431Y-108313393D01*
X111620409Y-108303085D01*
X111661890Y-108299000D01*
X112338110Y-108299000D01*
X112379591Y-108303085D01*
G37*
G36*
X126379591Y-108303085D02*
G01*
X126413569Y-108313393D01*
X126444890Y-108330134D01*
X126472339Y-108352661D01*
X126494866Y-108380110D01*
X126511607Y-108411431D01*
X126521915Y-108445409D01*
X126526000Y-108486890D01*
X126526000Y-109088110D01*
X126521915Y-109129591D01*
X126511607Y-109163569D01*
X126494866Y-109194890D01*
X126472339Y-109222339D01*
X126444890Y-109244866D01*
X126413569Y-109261607D01*
X126379591Y-109271915D01*
X126338110Y-109276000D01*
X125661890Y-109276000D01*
X125620409Y-109271915D01*
X125586431Y-109261607D01*
X125555110Y-109244866D01*
X125527661Y-109222339D01*
X125505134Y-109194890D01*
X125488393Y-109163569D01*
X125478085Y-109129591D01*
X125474000Y-109088110D01*
X125474000Y-108486890D01*
X125478085Y-108445409D01*
X125488393Y-108411431D01*
X125505134Y-108380110D01*
X125527661Y-108352661D01*
X125555110Y-108330134D01*
X125586431Y-108313393D01*
X125620409Y-108303085D01*
X125661890Y-108299000D01*
X126338110Y-108299000D01*
X126379591Y-108303085D01*
G37*
G36*
X98379591Y-108303085D02*
G01*
X98413569Y-108313393D01*
X98444890Y-108330134D01*
X98472339Y-108352661D01*
X98494866Y-108380110D01*
X98511607Y-108411431D01*
X98521915Y-108445409D01*
X98526000Y-108486890D01*
X98526000Y-109088110D01*
X98521915Y-109129591D01*
X98511607Y-109163569D01*
X98494866Y-109194890D01*
X98472339Y-109222339D01*
X98444890Y-109244866D01*
X98413569Y-109261607D01*
X98379591Y-109271915D01*
X98338110Y-109276000D01*
X97661890Y-109276000D01*
X97620409Y-109271915D01*
X97586431Y-109261607D01*
X97555110Y-109244866D01*
X97527661Y-109222339D01*
X97505134Y-109194890D01*
X97488393Y-109163569D01*
X97478085Y-109129591D01*
X97474000Y-109088110D01*
X97474000Y-108486890D01*
X97478085Y-108445409D01*
X97488393Y-108411431D01*
X97505134Y-108380110D01*
X97527661Y-108352661D01*
X97555110Y-108330134D01*
X97586431Y-108313393D01*
X97620409Y-108303085D01*
X97661890Y-108299000D01*
X98338110Y-108299000D01*
X98379591Y-108303085D01*
G37*
G36*
X131415256Y-104771298D02*
G01*
X131521579Y-104792447D01*
X131822042Y-104916903D01*
X132092451Y-105097585D01*
X132322415Y-105327549D01*
X132503097Y-105597958D01*
X132627553Y-105898421D01*
X132691000Y-106217391D01*
X132691000Y-106542609D01*
X132627553Y-106861579D01*
X132503097Y-107162042D01*
X132322415Y-107432451D01*
X132092451Y-107662415D01*
X131822042Y-107843097D01*
X131521579Y-107967553D01*
X131415256Y-107988702D01*
X131202611Y-108031000D01*
X130877389Y-108031000D01*
X130664744Y-107988702D01*
X130558421Y-107967553D01*
X130257958Y-107843097D01*
X129987549Y-107662415D01*
X129757585Y-107432451D01*
X129576903Y-107162042D01*
X129452447Y-106861579D01*
X129389000Y-106542609D01*
X129389000Y-106217391D01*
X129452447Y-105898421D01*
X129576903Y-105597958D01*
X129757585Y-105327549D01*
X129987549Y-105097585D01*
X130257958Y-104916903D01*
X130558421Y-104792447D01*
X130664744Y-104771298D01*
X130877389Y-104729000D01*
X131202611Y-104729000D01*
X131415256Y-104771298D01*
G37*
G36*
X112379591Y-106728085D02*
G01*
X112413569Y-106738393D01*
X112444890Y-106755134D01*
X112472339Y-106777661D01*
X112494866Y-106805110D01*
X112511607Y-106836431D01*
X112521915Y-106870409D01*
X112526000Y-106911890D01*
X112526000Y-107513110D01*
X112521915Y-107554591D01*
X112511607Y-107588569D01*
X112494866Y-107619890D01*
X112472339Y-107647339D01*
X112444890Y-107669866D01*
X112413569Y-107686607D01*
X112379591Y-107696915D01*
X112338110Y-107701000D01*
X111661890Y-107701000D01*
X111620409Y-107696915D01*
X111586431Y-107686607D01*
X111555110Y-107669866D01*
X111527661Y-107647339D01*
X111505134Y-107619890D01*
X111488393Y-107588569D01*
X111478085Y-107554591D01*
X111474000Y-107513110D01*
X111474000Y-106911890D01*
X111478085Y-106870409D01*
X111488393Y-106836431D01*
X111505134Y-106805110D01*
X111527661Y-106777661D01*
X111555110Y-106755134D01*
X111586431Y-106738393D01*
X111620409Y-106728085D01*
X111661890Y-106724000D01*
X112338110Y-106724000D01*
X112379591Y-106728085D01*
G37*
G36*
X119379591Y-106728085D02*
G01*
X119413569Y-106738393D01*
X119444890Y-106755134D01*
X119472339Y-106777661D01*
X119494866Y-106805110D01*
X119511607Y-106836431D01*
X119521915Y-106870409D01*
X119526000Y-106911890D01*
X119526000Y-107513110D01*
X119521915Y-107554591D01*
X119511607Y-107588569D01*
X119494866Y-107619890D01*
X119472339Y-107647339D01*
X119444890Y-107669866D01*
X119413569Y-107686607D01*
X119379591Y-107696915D01*
X119338110Y-107701000D01*
X118661890Y-107701000D01*
X118620409Y-107696915D01*
X118586431Y-107686607D01*
X118555110Y-107669866D01*
X118527661Y-107647339D01*
X118505134Y-107619890D01*
X118488393Y-107588569D01*
X118478085Y-107554591D01*
X118474000Y-107513110D01*
X118474000Y-106911890D01*
X118478085Y-106870409D01*
X118488393Y-106836431D01*
X118505134Y-106805110D01*
X118527661Y-106777661D01*
X118555110Y-106755134D01*
X118586431Y-106738393D01*
X118620409Y-106728085D01*
X118661890Y-106724000D01*
X119338110Y-106724000D01*
X119379591Y-106728085D01*
G37*
G36*
X126379591Y-106728085D02*
G01*
X126413569Y-106738393D01*
X126444890Y-106755134D01*
X126472339Y-106777661D01*
X126494866Y-106805110D01*
X126511607Y-106836431D01*
X126521915Y-106870409D01*
X126526000Y-106911890D01*
X126526000Y-107513110D01*
X126521915Y-107554591D01*
X126511607Y-107588569D01*
X126494866Y-107619890D01*
X126472339Y-107647339D01*
X126444890Y-107669866D01*
X126413569Y-107686607D01*
X126379591Y-107696915D01*
X126338110Y-107701000D01*
X125661890Y-107701000D01*
X125620409Y-107696915D01*
X125586431Y-107686607D01*
X125555110Y-107669866D01*
X125527661Y-107647339D01*
X125505134Y-107619890D01*
X125488393Y-107588569D01*
X125478085Y-107554591D01*
X125474000Y-107513110D01*
X125474000Y-106911890D01*
X125478085Y-106870409D01*
X125488393Y-106836431D01*
X125505134Y-106805110D01*
X125527661Y-106777661D01*
X125555110Y-106755134D01*
X125586431Y-106738393D01*
X125620409Y-106728085D01*
X125661890Y-106724000D01*
X126338110Y-106724000D01*
X126379591Y-106728085D01*
G37*
G36*
X105379591Y-106728085D02*
G01*
X105413569Y-106738393D01*
X105444890Y-106755134D01*
X105472339Y-106777661D01*
X105494866Y-106805110D01*
X105511607Y-106836431D01*
X105521915Y-106870409D01*
X105526000Y-106911890D01*
X105526000Y-107513110D01*
X105521915Y-107554591D01*
X105511607Y-107588569D01*
X105494866Y-107619890D01*
X105472339Y-107647339D01*
X105444890Y-107669866D01*
X105413569Y-107686607D01*
X105379591Y-107696915D01*
X105338110Y-107701000D01*
X104661890Y-107701000D01*
X104620409Y-107696915D01*
X104586431Y-107686607D01*
X104555110Y-107669866D01*
X104527661Y-107647339D01*
X104505134Y-107619890D01*
X104488393Y-107588569D01*
X104478085Y-107554591D01*
X104474000Y-107513110D01*
X104474000Y-106911890D01*
X104478085Y-106870409D01*
X104488393Y-106836431D01*
X104505134Y-106805110D01*
X104527661Y-106777661D01*
X104555110Y-106755134D01*
X104586431Y-106738393D01*
X104620409Y-106728085D01*
X104661890Y-106724000D01*
X105338110Y-106724000D01*
X105379591Y-106728085D01*
G37*
G36*
X98379591Y-106728085D02*
G01*
X98413569Y-106738393D01*
X98444890Y-106755134D01*
X98472339Y-106777661D01*
X98494866Y-106805110D01*
X98511607Y-106836431D01*
X98521915Y-106870409D01*
X98526000Y-106911890D01*
X98526000Y-107513110D01*
X98521915Y-107554591D01*
X98511607Y-107588569D01*
X98494866Y-107619890D01*
X98472339Y-107647339D01*
X98444890Y-107669866D01*
X98413569Y-107686607D01*
X98379591Y-107696915D01*
X98338110Y-107701000D01*
X97661890Y-107701000D01*
X97620409Y-107696915D01*
X97586431Y-107686607D01*
X97555110Y-107669866D01*
X97527661Y-107647339D01*
X97505134Y-107619890D01*
X97488393Y-107588569D01*
X97478085Y-107554591D01*
X97474000Y-107513110D01*
X97474000Y-106911890D01*
X97478085Y-106870409D01*
X97488393Y-106836431D01*
X97505134Y-106805110D01*
X97527661Y-106777661D01*
X97555110Y-106755134D01*
X97586431Y-106738393D01*
X97620409Y-106728085D01*
X97661890Y-106724000D01*
X98338110Y-106724000D01*
X98379591Y-106728085D01*
G37*
G36*
X98768604Y-103728347D02*
G01*
X98805144Y-103739432D01*
X98838821Y-103757433D01*
X98868341Y-103781659D01*
X98892567Y-103811179D01*
X98910568Y-103844856D01*
X98921653Y-103881396D01*
X98926000Y-103925538D01*
X98926000Y-104874462D01*
X98921653Y-104918604D01*
X98910568Y-104955144D01*
X98892567Y-104988821D01*
X98868341Y-105018341D01*
X98838821Y-105042567D01*
X98805144Y-105060568D01*
X98768604Y-105071653D01*
X98724462Y-105076000D01*
X97275538Y-105076000D01*
X97231396Y-105071653D01*
X97194856Y-105060568D01*
X97161179Y-105042567D01*
X97131659Y-105018341D01*
X97107433Y-104988821D01*
X97089432Y-104955144D01*
X97078347Y-104918604D01*
X97074000Y-104874462D01*
X97074000Y-103925538D01*
X97078347Y-103881396D01*
X97089432Y-103844856D01*
X97107433Y-103811179D01*
X97131659Y-103781659D01*
X97161179Y-103757433D01*
X97194856Y-103739432D01*
X97231396Y-103728347D01*
X97275538Y-103724000D01*
X98724462Y-103724000D01*
X98768604Y-103728347D01*
G37*
G36*
X105768604Y-103728347D02*
G01*
X105805144Y-103739432D01*
X105838821Y-103757433D01*
X105868341Y-103781659D01*
X105892567Y-103811179D01*
X105910568Y-103844856D01*
X105921653Y-103881396D01*
X105926000Y-103925538D01*
X105926000Y-104874462D01*
X105921653Y-104918604D01*
X105910568Y-104955144D01*
X105892567Y-104988821D01*
X105868341Y-105018341D01*
X105838821Y-105042567D01*
X105805144Y-105060568D01*
X105768604Y-105071653D01*
X105724462Y-105076000D01*
X104275538Y-105076000D01*
X104231396Y-105071653D01*
X104194856Y-105060568D01*
X104161179Y-105042567D01*
X104131659Y-105018341D01*
X104107433Y-104988821D01*
X104089432Y-104955144D01*
X104078347Y-104918604D01*
X104074000Y-104874462D01*
X104074000Y-103925538D01*
X104078347Y-103881396D01*
X104089432Y-103844856D01*
X104107433Y-103811179D01*
X104131659Y-103781659D01*
X104161179Y-103757433D01*
X104194856Y-103739432D01*
X104231396Y-103728347D01*
X104275538Y-103724000D01*
X105724462Y-103724000D01*
X105768604Y-103728347D01*
G37*
G36*
X112768604Y-103728347D02*
G01*
X112805144Y-103739432D01*
X112838821Y-103757433D01*
X112868341Y-103781659D01*
X112892567Y-103811179D01*
X112910568Y-103844856D01*
X112921653Y-103881396D01*
X112926000Y-103925538D01*
X112926000Y-104874462D01*
X112921653Y-104918604D01*
X112910568Y-104955144D01*
X112892567Y-104988821D01*
X112868341Y-105018341D01*
X112838821Y-105042567D01*
X112805144Y-105060568D01*
X112768604Y-105071653D01*
X112724462Y-105076000D01*
X111275538Y-105076000D01*
X111231396Y-105071653D01*
X111194856Y-105060568D01*
X111161179Y-105042567D01*
X111131659Y-105018341D01*
X111107433Y-104988821D01*
X111089432Y-104955144D01*
X111078347Y-104918604D01*
X111074000Y-104874462D01*
X111074000Y-103925538D01*
X111078347Y-103881396D01*
X111089432Y-103844856D01*
X111107433Y-103811179D01*
X111131659Y-103781659D01*
X111161179Y-103757433D01*
X111194856Y-103739432D01*
X111231396Y-103728347D01*
X111275538Y-103724000D01*
X112724462Y-103724000D01*
X112768604Y-103728347D01*
G37*
G36*
X119768604Y-103728347D02*
G01*
X119805144Y-103739432D01*
X119838821Y-103757433D01*
X119868341Y-103781659D01*
X119892567Y-103811179D01*
X119910568Y-103844856D01*
X119921653Y-103881396D01*
X119926000Y-103925538D01*
X119926000Y-104874462D01*
X119921653Y-104918604D01*
X119910568Y-104955144D01*
X119892567Y-104988821D01*
X119868341Y-105018341D01*
X119838821Y-105042567D01*
X119805144Y-105060568D01*
X119768604Y-105071653D01*
X119724462Y-105076000D01*
X118275538Y-105076000D01*
X118231396Y-105071653D01*
X118194856Y-105060568D01*
X118161179Y-105042567D01*
X118131659Y-105018341D01*
X118107433Y-104988821D01*
X118089432Y-104955144D01*
X118078347Y-104918604D01*
X118074000Y-104874462D01*
X118074000Y-103925538D01*
X118078347Y-103881396D01*
X118089432Y-103844856D01*
X118107433Y-103811179D01*
X118131659Y-103781659D01*
X118161179Y-103757433D01*
X118194856Y-103739432D01*
X118231396Y-103728347D01*
X118275538Y-103724000D01*
X119724462Y-103724000D01*
X119768604Y-103728347D01*
G37*
G36*
X126768604Y-103728347D02*
G01*
X126805144Y-103739432D01*
X126838821Y-103757433D01*
X126868341Y-103781659D01*
X126892567Y-103811179D01*
X126910568Y-103844856D01*
X126921653Y-103881396D01*
X126926000Y-103925538D01*
X126926000Y-104874462D01*
X126921653Y-104918604D01*
X126910568Y-104955144D01*
X126892567Y-104988821D01*
X126868341Y-105018341D01*
X126838821Y-105042567D01*
X126805144Y-105060568D01*
X126768604Y-105071653D01*
X126724462Y-105076000D01*
X125275538Y-105076000D01*
X125231396Y-105071653D01*
X125194856Y-105060568D01*
X125161179Y-105042567D01*
X125131659Y-105018341D01*
X125107433Y-104988821D01*
X125089432Y-104955144D01*
X125078347Y-104918604D01*
X125074000Y-104874462D01*
X125074000Y-103925538D01*
X125078347Y-103881396D01*
X125089432Y-103844856D01*
X125107433Y-103811179D01*
X125131659Y-103781659D01*
X125161179Y-103757433D01*
X125194856Y-103739432D01*
X125231396Y-103728347D01*
X125275538Y-103724000D01*
X126724462Y-103724000D01*
X126768604Y-103728347D01*
G37*
G36*
X83306564Y-102989389D02*
G01*
X83497833Y-103068615D01*
X83497835Y-103068616D01*
X83669973Y-103183635D01*
X83816365Y-103330027D01*
X83931385Y-103502167D01*
X84010611Y-103693436D01*
X84051000Y-103896484D01*
X84051000Y-104103516D01*
X84010611Y-104306564D01*
X83931385Y-104497833D01*
X83931384Y-104497835D01*
X83816365Y-104669973D01*
X83669973Y-104816365D01*
X83497835Y-104931384D01*
X83497834Y-104931385D01*
X83497833Y-104931385D01*
X83306564Y-105010611D01*
X83103516Y-105051000D01*
X82896484Y-105051000D01*
X82693436Y-105010611D01*
X82502167Y-104931385D01*
X82502166Y-104931385D01*
X82502165Y-104931384D01*
X82330027Y-104816365D01*
X82183635Y-104669973D01*
X82068616Y-104497835D01*
X82068615Y-104497833D01*
X81989389Y-104306564D01*
X81949000Y-104103516D01*
X81949000Y-103896484D01*
X81989389Y-103693436D01*
X82068615Y-103502167D01*
X82183635Y-103330027D01*
X82330027Y-103183635D01*
X82502165Y-103068616D01*
X82502167Y-103068615D01*
X82693436Y-102989389D01*
X82896484Y-102949000D01*
X83103516Y-102949000D01*
X83306564Y-102989389D01*
G37*
G36*
X89806564Y-102989389D02*
G01*
X89997833Y-103068615D01*
X89997835Y-103068616D01*
X90169973Y-103183635D01*
X90316365Y-103330027D01*
X90431385Y-103502167D01*
X90510611Y-103693436D01*
X90551000Y-103896484D01*
X90551000Y-104103516D01*
X90510611Y-104306564D01*
X90431385Y-104497833D01*
X90431384Y-104497835D01*
X90316365Y-104669973D01*
X90169973Y-104816365D01*
X89997835Y-104931384D01*
X89997834Y-104931385D01*
X89997833Y-104931385D01*
X89806564Y-105010611D01*
X89603516Y-105051000D01*
X89396484Y-105051000D01*
X89193436Y-105010611D01*
X89002167Y-104931385D01*
X89002166Y-104931385D01*
X89002165Y-104931384D01*
X88830027Y-104816365D01*
X88683635Y-104669973D01*
X88568616Y-104497835D01*
X88568615Y-104497833D01*
X88489389Y-104306564D01*
X88449000Y-104103516D01*
X88449000Y-103896484D01*
X88489389Y-103693436D01*
X88568615Y-103502167D01*
X88683635Y-103330027D01*
X88830027Y-103183635D01*
X89002165Y-103068616D01*
X89002167Y-103068615D01*
X89193436Y-102989389D01*
X89396484Y-102949000D01*
X89603516Y-102949000D01*
X89806564Y-102989389D01*
G37*
G36*
X126768604Y-100928347D02*
G01*
X126805144Y-100939432D01*
X126838821Y-100957433D01*
X126868341Y-100981659D01*
X126892567Y-101011179D01*
X126910568Y-101044856D01*
X126921653Y-101081396D01*
X126926000Y-101125538D01*
X126926000Y-102074462D01*
X126921653Y-102118604D01*
X126910568Y-102155144D01*
X126892567Y-102188821D01*
X126868341Y-102218341D01*
X126838821Y-102242567D01*
X126805144Y-102260568D01*
X126768604Y-102271653D01*
X126724462Y-102276000D01*
X125275538Y-102276000D01*
X125231396Y-102271653D01*
X125194856Y-102260568D01*
X125161179Y-102242567D01*
X125131659Y-102218341D01*
X125107433Y-102188821D01*
X125089432Y-102155144D01*
X125078347Y-102118604D01*
X125074000Y-102074462D01*
X125074000Y-101125538D01*
X125078347Y-101081396D01*
X125089432Y-101044856D01*
X125107433Y-101011179D01*
X125131659Y-100981659D01*
X125161179Y-100957433D01*
X125194856Y-100939432D01*
X125231396Y-100928347D01*
X125275538Y-100924000D01*
X126724462Y-100924000D01*
X126768604Y-100928347D01*
G37*
G36*
X119768604Y-100928347D02*
G01*
X119805144Y-100939432D01*
X119838821Y-100957433D01*
X119868341Y-100981659D01*
X119892567Y-101011179D01*
X119910568Y-101044856D01*
X119921653Y-101081396D01*
X119926000Y-101125538D01*
X119926000Y-102074462D01*
X119921653Y-102118604D01*
X119910568Y-102155144D01*
X119892567Y-102188821D01*
X119868341Y-102218341D01*
X119838821Y-102242567D01*
X119805144Y-102260568D01*
X119768604Y-102271653D01*
X119724462Y-102276000D01*
X118275538Y-102276000D01*
X118231396Y-102271653D01*
X118194856Y-102260568D01*
X118161179Y-102242567D01*
X118131659Y-102218341D01*
X118107433Y-102188821D01*
X118089432Y-102155144D01*
X118078347Y-102118604D01*
X118074000Y-102074462D01*
X118074000Y-101125538D01*
X118078347Y-101081396D01*
X118089432Y-101044856D01*
X118107433Y-101011179D01*
X118131659Y-100981659D01*
X118161179Y-100957433D01*
X118194856Y-100939432D01*
X118231396Y-100928347D01*
X118275538Y-100924000D01*
X119724462Y-100924000D01*
X119768604Y-100928347D01*
G37*
G36*
X112768604Y-100928347D02*
G01*
X112805144Y-100939432D01*
X112838821Y-100957433D01*
X112868341Y-100981659D01*
X112892567Y-101011179D01*
X112910568Y-101044856D01*
X112921653Y-101081396D01*
X112926000Y-101125538D01*
X112926000Y-102074462D01*
X112921653Y-102118604D01*
X112910568Y-102155144D01*
X112892567Y-102188821D01*
X112868341Y-102218341D01*
X112838821Y-102242567D01*
X112805144Y-102260568D01*
X112768604Y-102271653D01*
X112724462Y-102276000D01*
X111275538Y-102276000D01*
X111231396Y-102271653D01*
X111194856Y-102260568D01*
X111161179Y-102242567D01*
X111131659Y-102218341D01*
X111107433Y-102188821D01*
X111089432Y-102155144D01*
X111078347Y-102118604D01*
X111074000Y-102074462D01*
X111074000Y-101125538D01*
X111078347Y-101081396D01*
X111089432Y-101044856D01*
X111107433Y-101011179D01*
X111131659Y-100981659D01*
X111161179Y-100957433D01*
X111194856Y-100939432D01*
X111231396Y-100928347D01*
X111275538Y-100924000D01*
X112724462Y-100924000D01*
X112768604Y-100928347D01*
G37*
G36*
X105768604Y-100928347D02*
G01*
X105805144Y-100939432D01*
X105838821Y-100957433D01*
X105868341Y-100981659D01*
X105892567Y-101011179D01*
X105910568Y-101044856D01*
X105921653Y-101081396D01*
X105926000Y-101125538D01*
X105926000Y-102074462D01*
X105921653Y-102118604D01*
X105910568Y-102155144D01*
X105892567Y-102188821D01*
X105868341Y-102218341D01*
X105838821Y-102242567D01*
X105805144Y-102260568D01*
X105768604Y-102271653D01*
X105724462Y-102276000D01*
X104275538Y-102276000D01*
X104231396Y-102271653D01*
X104194856Y-102260568D01*
X104161179Y-102242567D01*
X104131659Y-102218341D01*
X104107433Y-102188821D01*
X104089432Y-102155144D01*
X104078347Y-102118604D01*
X104074000Y-102074462D01*
X104074000Y-101125538D01*
X104078347Y-101081396D01*
X104089432Y-101044856D01*
X104107433Y-101011179D01*
X104131659Y-100981659D01*
X104161179Y-100957433D01*
X104194856Y-100939432D01*
X104231396Y-100928347D01*
X104275538Y-100924000D01*
X105724462Y-100924000D01*
X105768604Y-100928347D01*
G37*
G36*
X98768604Y-100928347D02*
G01*
X98805144Y-100939432D01*
X98838821Y-100957433D01*
X98868341Y-100981659D01*
X98892567Y-101011179D01*
X98910568Y-101044856D01*
X98921653Y-101081396D01*
X98926000Y-101125538D01*
X98926000Y-102074462D01*
X98921653Y-102118604D01*
X98910568Y-102155144D01*
X98892567Y-102188821D01*
X98868341Y-102218341D01*
X98838821Y-102242567D01*
X98805144Y-102260568D01*
X98768604Y-102271653D01*
X98724462Y-102276000D01*
X97275538Y-102276000D01*
X97231396Y-102271653D01*
X97194856Y-102260568D01*
X97161179Y-102242567D01*
X97131659Y-102218341D01*
X97107433Y-102188821D01*
X97089432Y-102155144D01*
X97078347Y-102118604D01*
X97074000Y-102074462D01*
X97074000Y-101125538D01*
X97078347Y-101081396D01*
X97089432Y-101044856D01*
X97107433Y-101011179D01*
X97131659Y-100981659D01*
X97161179Y-100957433D01*
X97194856Y-100939432D01*
X97231396Y-100928347D01*
X97275538Y-100924000D01*
X98724462Y-100924000D01*
X98768604Y-100928347D01*
G37*
G36*
X131433778Y-87720547D02*
G01*
X131600224Y-87789491D01*
X131750022Y-87889583D01*
X131877417Y-88016978D01*
X131977509Y-88166776D01*
X132046453Y-88333222D01*
X132081600Y-88509918D01*
X132081600Y-88690082D01*
X132046453Y-88866778D01*
X131977509Y-89033224D01*
X131877417Y-89183022D01*
X131750022Y-89310417D01*
X131600224Y-89410509D01*
X131433778Y-89479453D01*
X131257082Y-89514600D01*
X131076918Y-89514600D01*
X130900222Y-89479453D01*
X130733776Y-89410509D01*
X130583978Y-89310417D01*
X130456583Y-89183022D01*
X130356491Y-89033224D01*
X130287547Y-88866778D01*
X130252400Y-88690082D01*
X130252400Y-88509918D01*
X130287547Y-88333222D01*
X130356491Y-88166776D01*
X130456583Y-88016978D01*
X130583978Y-87889583D01*
X130733776Y-87789491D01*
X130900222Y-87720547D01*
X131076918Y-87685400D01*
X131257082Y-87685400D01*
X131433778Y-87720547D01*
G37*
G36*
X128893778Y-87720547D02*
G01*
X129060224Y-87789491D01*
X129210022Y-87889583D01*
X129337417Y-88016978D01*
X129437509Y-88166776D01*
X129506453Y-88333222D01*
X129541600Y-88509918D01*
X129541600Y-88690082D01*
X129506453Y-88866778D01*
X129437509Y-89033224D01*
X129337417Y-89183022D01*
X129210022Y-89310417D01*
X129060224Y-89410509D01*
X128893778Y-89479453D01*
X128717082Y-89514600D01*
X128536918Y-89514600D01*
X128360222Y-89479453D01*
X128193776Y-89410509D01*
X128043978Y-89310417D01*
X127916583Y-89183022D01*
X127816491Y-89033224D01*
X127747547Y-88866778D01*
X127712400Y-88690082D01*
X127712400Y-88509918D01*
X127747547Y-88333222D01*
X127816491Y-88166776D01*
X127916583Y-88016978D01*
X128043978Y-87889583D01*
X128193776Y-87789491D01*
X128360222Y-87720547D01*
X128536918Y-87685400D01*
X128717082Y-87685400D01*
X128893778Y-87720547D01*
G37*
G36*
X128893778Y-85180547D02*
G01*
X129060224Y-85249491D01*
X129210022Y-85349583D01*
X129337417Y-85476978D01*
X129437509Y-85626776D01*
X129506453Y-85793222D01*
X129541600Y-85969918D01*
X129541600Y-86150082D01*
X129506453Y-86326778D01*
X129437509Y-86493224D01*
X129337417Y-86643022D01*
X129210022Y-86770417D01*
X129060224Y-86870509D01*
X128893778Y-86939453D01*
X128717082Y-86974600D01*
X128536918Y-86974600D01*
X128360222Y-86939453D01*
X128193776Y-86870509D01*
X128043978Y-86770417D01*
X127916583Y-86643022D01*
X127816491Y-86493224D01*
X127747547Y-86326778D01*
X127712400Y-86150082D01*
X127712400Y-85969918D01*
X127747547Y-85793222D01*
X127816491Y-85626776D01*
X127916583Y-85476978D01*
X128043978Y-85349583D01*
X128193776Y-85249491D01*
X128360222Y-85180547D01*
X128536918Y-85145400D01*
X128717082Y-85145400D01*
X128893778Y-85180547D01*
G37*
G36*
X131433778Y-85180547D02*
G01*
X131600224Y-85249491D01*
X131750022Y-85349583D01*
X131877417Y-85476978D01*
X131977509Y-85626776D01*
X132046453Y-85793222D01*
X132081600Y-85969918D01*
X132081600Y-86150082D01*
X132046453Y-86326778D01*
X131977509Y-86493224D01*
X131877417Y-86643022D01*
X131750022Y-86770417D01*
X131600224Y-86870509D01*
X131433778Y-86939453D01*
X131257082Y-86974600D01*
X131076918Y-86974600D01*
X130900222Y-86939453D01*
X130733776Y-86870509D01*
X130583978Y-86770417D01*
X130456583Y-86643022D01*
X130356491Y-86493224D01*
X130287547Y-86326778D01*
X130252400Y-86150082D01*
X130252400Y-85969918D01*
X130287547Y-85793222D01*
X130356491Y-85626776D01*
X130456583Y-85476978D01*
X130583978Y-85349583D01*
X130733776Y-85249491D01*
X130900222Y-85180547D01*
X131076918Y-85145400D01*
X131257082Y-85145400D01*
X131433778Y-85180547D01*
G37*
G36*
X128893778Y-82640547D02*
G01*
X129060224Y-82709491D01*
X129210022Y-82809583D01*
X129337417Y-82936978D01*
X129437509Y-83086776D01*
X129506453Y-83253222D01*
X129541600Y-83429918D01*
X129541600Y-83610082D01*
X129506453Y-83786778D01*
X129437509Y-83953224D01*
X129337417Y-84103022D01*
X129210022Y-84230417D01*
X129060224Y-84330509D01*
X128893778Y-84399453D01*
X128717082Y-84434600D01*
X128536918Y-84434600D01*
X128360222Y-84399453D01*
X128193776Y-84330509D01*
X128043978Y-84230417D01*
X127916583Y-84103022D01*
X127816491Y-83953224D01*
X127747547Y-83786778D01*
X127712400Y-83610082D01*
X127712400Y-83429918D01*
X127747547Y-83253222D01*
X127816491Y-83086776D01*
X127916583Y-82936978D01*
X128043978Y-82809583D01*
X128193776Y-82709491D01*
X128360222Y-82640547D01*
X128536918Y-82605400D01*
X128717082Y-82605400D01*
X128893778Y-82640547D01*
G37*
G36*
X131433778Y-82640547D02*
G01*
X131600224Y-82709491D01*
X131750022Y-82809583D01*
X131877417Y-82936978D01*
X131977509Y-83086776D01*
X132046453Y-83253222D01*
X132081600Y-83429918D01*
X132081600Y-83610082D01*
X132046453Y-83786778D01*
X131977509Y-83953224D01*
X131877417Y-84103022D01*
X131750022Y-84230417D01*
X131600224Y-84330509D01*
X131433778Y-84399453D01*
X131257082Y-84434600D01*
X131076918Y-84434600D01*
X130900222Y-84399453D01*
X130733776Y-84330509D01*
X130583978Y-84230417D01*
X130456583Y-84103022D01*
X130356491Y-83953224D01*
X130287547Y-83786778D01*
X130252400Y-83610082D01*
X130252400Y-83429918D01*
X130287547Y-83253222D01*
X130356491Y-83086776D01*
X130456583Y-82936978D01*
X130583978Y-82809583D01*
X130733776Y-82709491D01*
X130900222Y-82640547D01*
X131076918Y-82605400D01*
X131257082Y-82605400D01*
X131433778Y-82640547D01*
G37*
G36*
X131415256Y-76831298D02*
G01*
X131521579Y-76852447D01*
X131822042Y-76976903D01*
X132092451Y-77157585D01*
X132322415Y-77387549D01*
X132503097Y-77657958D01*
X132627553Y-77958421D01*
X132691000Y-78277391D01*
X132691000Y-78602609D01*
X132627553Y-78921579D01*
X132503097Y-79222042D01*
X132322415Y-79492451D01*
X132092451Y-79722415D01*
X131822042Y-79903097D01*
X131521579Y-80027553D01*
X131415256Y-80048702D01*
X131202611Y-80091000D01*
X130877389Y-80091000D01*
X130664744Y-80048702D01*
X130558421Y-80027553D01*
X130257958Y-79903097D01*
X129987549Y-79722415D01*
X129757585Y-79492451D01*
X129576903Y-79222042D01*
X129452447Y-78921579D01*
X129389000Y-78602609D01*
X129389000Y-78277391D01*
X129452447Y-77958421D01*
X129576903Y-77657958D01*
X129757585Y-77387549D01*
X129987549Y-77157585D01*
X130257958Y-76976903D01*
X130558421Y-76852447D01*
X130664744Y-76831298D01*
X130877389Y-76789000D01*
X131202611Y-76789000D01*
X131415256Y-76831298D01*
G37*
G36*
X81554591Y-68478085D02*
G01*
X81588569Y-68488393D01*
X81619890Y-68505134D01*
X81647339Y-68527661D01*
X81669866Y-68555110D01*
X81686607Y-68586431D01*
X81696915Y-68620409D01*
X81701000Y-68661890D01*
X81701000Y-69338110D01*
X81696915Y-69379591D01*
X81686607Y-69413569D01*
X81669866Y-69444890D01*
X81647339Y-69472339D01*
X81619890Y-69494866D01*
X81588569Y-69511607D01*
X81554591Y-69521915D01*
X81513110Y-69526000D01*
X80911890Y-69526000D01*
X80870409Y-69521915D01*
X80836431Y-69511607D01*
X80805110Y-69494866D01*
X80777661Y-69472339D01*
X80755134Y-69444890D01*
X80738393Y-69413569D01*
X80728085Y-69379591D01*
X80724000Y-69338110D01*
X80724000Y-68661890D01*
X80728085Y-68620409D01*
X80738393Y-68586431D01*
X80755134Y-68555110D01*
X80777661Y-68527661D01*
X80805110Y-68505134D01*
X80836431Y-68488393D01*
X80870409Y-68478085D01*
X80911890Y-68474000D01*
X81513110Y-68474000D01*
X81554591Y-68478085D01*
G37*
G36*
X83129591Y-68478085D02*
G01*
X83163569Y-68488393D01*
X83194890Y-68505134D01*
X83222339Y-68527661D01*
X83244866Y-68555110D01*
X83261607Y-68586431D01*
X83271915Y-68620409D01*
X83276000Y-68661890D01*
X83276000Y-69338110D01*
X83271915Y-69379591D01*
X83261607Y-69413569D01*
X83244866Y-69444890D01*
X83222339Y-69472339D01*
X83194890Y-69494866D01*
X83163569Y-69511607D01*
X83129591Y-69521915D01*
X83088110Y-69526000D01*
X82486890Y-69526000D01*
X82445409Y-69521915D01*
X82411431Y-69511607D01*
X82380110Y-69494866D01*
X82352661Y-69472339D01*
X82330134Y-69444890D01*
X82313393Y-69413569D01*
X82303085Y-69379591D01*
X82299000Y-69338110D01*
X82299000Y-68661890D01*
X82303085Y-68620409D01*
X82313393Y-68586431D01*
X82330134Y-68555110D01*
X82352661Y-68527661D01*
X82380110Y-68505134D01*
X82411431Y-68488393D01*
X82445409Y-68478085D01*
X82486890Y-68474000D01*
X83088110Y-68474000D01*
X83129591Y-68478085D01*
G37*
G36*
X81554591Y-66478085D02*
G01*
X81588569Y-66488393D01*
X81619890Y-66505134D01*
X81647339Y-66527661D01*
X81669866Y-66555110D01*
X81686607Y-66586431D01*
X81696915Y-66620409D01*
X81701000Y-66661890D01*
X81701000Y-67338110D01*
X81696915Y-67379591D01*
X81686607Y-67413569D01*
X81669866Y-67444890D01*
X81647339Y-67472339D01*
X81619890Y-67494866D01*
X81588569Y-67511607D01*
X81554591Y-67521915D01*
X81513110Y-67526000D01*
X80911890Y-67526000D01*
X80870409Y-67521915D01*
X80836431Y-67511607D01*
X80805110Y-67494866D01*
X80777661Y-67472339D01*
X80755134Y-67444890D01*
X80738393Y-67413569D01*
X80728085Y-67379591D01*
X80724000Y-67338110D01*
X80724000Y-66661890D01*
X80728085Y-66620409D01*
X80738393Y-66586431D01*
X80755134Y-66555110D01*
X80777661Y-66527661D01*
X80805110Y-66505134D01*
X80836431Y-66488393D01*
X80870409Y-66478085D01*
X80911890Y-66474000D01*
X81513110Y-66474000D01*
X81554591Y-66478085D01*
G37*
G36*
X83129591Y-66478085D02*
G01*
X83163569Y-66488393D01*
X83194890Y-66505134D01*
X83222339Y-66527661D01*
X83244866Y-66555110D01*
X83261607Y-66586431D01*
X83271915Y-66620409D01*
X83276000Y-66661890D01*
X83276000Y-67338110D01*
X83271915Y-67379591D01*
X83261607Y-67413569D01*
X83244866Y-67444890D01*
X83222339Y-67472339D01*
X83194890Y-67494866D01*
X83163569Y-67511607D01*
X83129591Y-67521915D01*
X83088110Y-67526000D01*
X82486890Y-67526000D01*
X82445409Y-67521915D01*
X82411431Y-67511607D01*
X82380110Y-67494866D01*
X82352661Y-67472339D01*
X82330134Y-67444890D01*
X82313393Y-67413569D01*
X82303085Y-67379591D01*
X82299000Y-67338110D01*
X82299000Y-66661890D01*
X82303085Y-66620409D01*
X82313393Y-66586431D01*
X82330134Y-66555110D01*
X82352661Y-66527661D01*
X82380110Y-66505134D01*
X82411431Y-66488393D01*
X82445409Y-66478085D01*
X82486890Y-66474000D01*
X83088110Y-66474000D01*
X83129591Y-66478085D01*
G37*
G36*
X80615256Y-61591298D02*
G01*
X80721579Y-61612447D01*
X81022042Y-61736903D01*
X81292451Y-61917585D01*
X81522415Y-62147549D01*
X81703097Y-62417958D01*
X81703098Y-62417960D01*
X81827553Y-62718422D01*
X81891000Y-63037389D01*
X81891000Y-63362611D01*
X81827553Y-63681578D01*
X81732766Y-63910416D01*
X81703097Y-63982042D01*
X81522415Y-64252451D01*
X81292451Y-64482415D01*
X81022042Y-64663097D01*
X80721579Y-64787553D01*
X80615256Y-64808702D01*
X80402611Y-64851000D01*
X80077389Y-64851000D01*
X79864744Y-64808702D01*
X79758421Y-64787553D01*
X79457958Y-64663097D01*
X79187549Y-64482415D01*
X78957585Y-64252451D01*
X78776903Y-63982042D01*
X78747235Y-63910416D01*
X78652447Y-63681578D01*
X78589000Y-63362611D01*
X78589000Y-63037389D01*
X78652447Y-62718422D01*
X78776902Y-62417960D01*
X78776903Y-62417958D01*
X78957585Y-62147549D01*
X79187549Y-61917585D01*
X79457958Y-61736903D01*
X79758421Y-61612447D01*
X79864744Y-61591298D01*
X80077389Y-61549000D01*
X80402611Y-61549000D01*
X80615256Y-61591298D01*
G37*
G36*
X118606778Y-62320547D02*
G01*
X118773224Y-62389491D01*
X118923022Y-62489583D01*
X119050417Y-62616978D01*
X119150509Y-62766776D01*
X119219453Y-62933222D01*
X119254600Y-63109918D01*
X119254600Y-63290082D01*
X119219453Y-63466778D01*
X119150509Y-63633224D01*
X119050417Y-63783022D01*
X118923022Y-63910417D01*
X118773224Y-64010509D01*
X118606778Y-64079453D01*
X118430082Y-64114600D01*
X118249918Y-64114600D01*
X118073222Y-64079453D01*
X117906776Y-64010509D01*
X117756978Y-63910417D01*
X117629583Y-63783022D01*
X117529491Y-63633224D01*
X117460547Y-63466778D01*
X117425400Y-63290082D01*
X117425400Y-63109918D01*
X117460547Y-62933222D01*
X117529491Y-62766776D01*
X117629583Y-62616978D01*
X117756978Y-62489583D01*
X117906776Y-62389491D01*
X118073222Y-62320547D01*
X118249918Y-62285400D01*
X118430082Y-62285400D01*
X118606778Y-62320547D01*
G37*
G36*
X99302778Y-62320547D02*
G01*
X99469224Y-62389491D01*
X99619022Y-62489583D01*
X99746417Y-62616978D01*
X99846509Y-62766776D01*
X99915453Y-62933222D01*
X99950600Y-63109918D01*
X99950600Y-63290082D01*
X99915453Y-63466778D01*
X99846509Y-63633224D01*
X99746417Y-63783022D01*
X99619022Y-63910417D01*
X99469224Y-64010509D01*
X99302778Y-64079453D01*
X99126082Y-64114600D01*
X98945918Y-64114600D01*
X98769222Y-64079453D01*
X98602776Y-64010509D01*
X98452978Y-63910417D01*
X98325583Y-63783022D01*
X98225491Y-63633224D01*
X98156547Y-63466778D01*
X98121400Y-63290082D01*
X98121400Y-63109918D01*
X98156547Y-62933222D01*
X98225491Y-62766776D01*
X98325583Y-62616978D01*
X98452978Y-62489583D01*
X98602776Y-62389491D01*
X98769222Y-62320547D01*
X98945918Y-62285400D01*
X99126082Y-62285400D01*
X99302778Y-62320547D01*
G37*
G36*
X128766778Y-62320547D02*
G01*
X128933224Y-62389491D01*
X129083022Y-62489583D01*
X129210417Y-62616978D01*
X129310509Y-62766776D01*
X129379453Y-62933222D01*
X129414600Y-63109918D01*
X129414600Y-63290082D01*
X129379453Y-63466778D01*
X129310509Y-63633224D01*
X129210417Y-63783022D01*
X129083022Y-63910417D01*
X128933224Y-64010509D01*
X128766778Y-64079453D01*
X128590082Y-64114600D01*
X128409918Y-64114600D01*
X128233222Y-64079453D01*
X128066776Y-64010509D01*
X127916978Y-63910417D01*
X127789583Y-63783022D01*
X127689491Y-63633224D01*
X127620547Y-63466778D01*
X127585400Y-63290082D01*
X127585400Y-63109918D01*
X127620547Y-62933222D01*
X127689491Y-62766776D01*
X127789583Y-62616978D01*
X127916978Y-62489583D01*
X128066776Y-62389491D01*
X128233222Y-62320547D01*
X128409918Y-62285400D01*
X128590082Y-62285400D01*
X128766778Y-62320547D01*
G37*
G36*
X126226778Y-62320547D02*
G01*
X126393224Y-62389491D01*
X126543022Y-62489583D01*
X126670417Y-62616978D01*
X126770509Y-62766776D01*
X126839453Y-62933222D01*
X126874600Y-63109918D01*
X126874600Y-63290082D01*
X126839453Y-63466778D01*
X126770509Y-63633224D01*
X126670417Y-63783022D01*
X126543022Y-63910417D01*
X126393224Y-64010509D01*
X126226778Y-64079453D01*
X126050082Y-64114600D01*
X125869918Y-64114600D01*
X125693222Y-64079453D01*
X125526776Y-64010509D01*
X125376978Y-63910417D01*
X125249583Y-63783022D01*
X125149491Y-63633224D01*
X125080547Y-63466778D01*
X125045400Y-63290082D01*
X125045400Y-63109918D01*
X125080547Y-62933222D01*
X125149491Y-62766776D01*
X125249583Y-62616978D01*
X125376978Y-62489583D01*
X125526776Y-62389491D01*
X125693222Y-62320547D01*
X125869918Y-62285400D01*
X126050082Y-62285400D01*
X126226778Y-62320547D01*
G37*
G36*
X123686778Y-62320547D02*
G01*
X123853224Y-62389491D01*
X124003022Y-62489583D01*
X124130417Y-62616978D01*
X124230509Y-62766776D01*
X124299453Y-62933222D01*
X124334600Y-63109918D01*
X124334600Y-63290082D01*
X124299453Y-63466778D01*
X124230509Y-63633224D01*
X124130417Y-63783022D01*
X124003022Y-63910417D01*
X123853224Y-64010509D01*
X123686778Y-64079453D01*
X123510082Y-64114600D01*
X123329918Y-64114600D01*
X123153222Y-64079453D01*
X122986776Y-64010509D01*
X122836978Y-63910417D01*
X122709583Y-63783022D01*
X122609491Y-63633224D01*
X122540547Y-63466778D01*
X122505400Y-63290082D01*
X122505400Y-63109918D01*
X122540547Y-62933222D01*
X122609491Y-62766776D01*
X122709583Y-62616978D01*
X122836978Y-62489583D01*
X122986776Y-62389491D01*
X123153222Y-62320547D01*
X123329918Y-62285400D01*
X123510082Y-62285400D01*
X123686778Y-62320547D01*
G37*
G36*
X121146778Y-62320547D02*
G01*
X121313224Y-62389491D01*
X121463022Y-62489583D01*
X121590417Y-62616978D01*
X121690509Y-62766776D01*
X121759453Y-62933222D01*
X121794600Y-63109918D01*
X121794600Y-63290082D01*
X121759453Y-63466778D01*
X121690509Y-63633224D01*
X121590417Y-63783022D01*
X121463022Y-63910417D01*
X121313224Y-64010509D01*
X121146778Y-64079453D01*
X120970082Y-64114600D01*
X120789918Y-64114600D01*
X120613222Y-64079453D01*
X120446776Y-64010509D01*
X120296978Y-63910417D01*
X120169583Y-63783022D01*
X120069491Y-63633224D01*
X120000547Y-63466778D01*
X119965400Y-63290082D01*
X119965400Y-63109918D01*
X120000547Y-62933222D01*
X120069491Y-62766776D01*
X120169583Y-62616978D01*
X120296978Y-62489583D01*
X120446776Y-62389491D01*
X120613222Y-62320547D01*
X120789918Y-62285400D01*
X120970082Y-62285400D01*
X121146778Y-62320547D01*
G37*
G36*
X116066778Y-62320547D02*
G01*
X116233224Y-62389491D01*
X116383022Y-62489583D01*
X116510417Y-62616978D01*
X116610509Y-62766776D01*
X116679453Y-62933222D01*
X116714600Y-63109918D01*
X116714600Y-63290082D01*
X116679453Y-63466778D01*
X116610509Y-63633224D01*
X116510417Y-63783022D01*
X116383022Y-63910417D01*
X116233224Y-64010509D01*
X116066778Y-64079453D01*
X115890082Y-64114600D01*
X115709918Y-64114600D01*
X115533222Y-64079453D01*
X115366776Y-64010509D01*
X115216978Y-63910417D01*
X115089583Y-63783022D01*
X114989491Y-63633224D01*
X114920547Y-63466778D01*
X114885400Y-63290082D01*
X114885400Y-63109918D01*
X114920547Y-62933222D01*
X114989491Y-62766776D01*
X115089583Y-62616978D01*
X115216978Y-62489583D01*
X115366776Y-62389491D01*
X115533222Y-62320547D01*
X115709918Y-62285400D01*
X115890082Y-62285400D01*
X116066778Y-62320547D01*
G37*
G36*
X113526778Y-62320547D02*
G01*
X113693224Y-62389491D01*
X113843022Y-62489583D01*
X113970417Y-62616978D01*
X114070509Y-62766776D01*
X114139453Y-62933222D01*
X114174600Y-63109918D01*
X114174600Y-63290082D01*
X114139453Y-63466778D01*
X114070509Y-63633224D01*
X113970417Y-63783022D01*
X113843022Y-63910417D01*
X113693224Y-64010509D01*
X113526778Y-64079453D01*
X113350082Y-64114600D01*
X113169918Y-64114600D01*
X112993222Y-64079453D01*
X112826776Y-64010509D01*
X112676978Y-63910417D01*
X112549583Y-63783022D01*
X112449491Y-63633224D01*
X112380547Y-63466778D01*
X112345400Y-63290082D01*
X112345400Y-63109918D01*
X112380547Y-62933222D01*
X112449491Y-62766776D01*
X112549583Y-62616978D01*
X112676978Y-62489583D01*
X112826776Y-62389491D01*
X112993222Y-62320547D01*
X113169918Y-62285400D01*
X113350082Y-62285400D01*
X113526778Y-62320547D01*
G37*
G36*
X110986778Y-62320547D02*
G01*
X111153224Y-62389491D01*
X111303022Y-62489583D01*
X111430417Y-62616978D01*
X111530509Y-62766776D01*
X111599453Y-62933222D01*
X111634600Y-63109918D01*
X111634600Y-63290082D01*
X111599453Y-63466778D01*
X111530509Y-63633224D01*
X111430417Y-63783022D01*
X111303022Y-63910417D01*
X111153224Y-64010509D01*
X110986778Y-64079453D01*
X110810082Y-64114600D01*
X110629918Y-64114600D01*
X110453222Y-64079453D01*
X110286776Y-64010509D01*
X110136978Y-63910417D01*
X110009583Y-63783022D01*
X109909491Y-63633224D01*
X109840547Y-63466778D01*
X109805400Y-63290082D01*
X109805400Y-63109918D01*
X109840547Y-62933222D01*
X109909491Y-62766776D01*
X110009583Y-62616978D01*
X110136978Y-62489583D01*
X110286776Y-62389491D01*
X110453222Y-62320547D01*
X110629918Y-62285400D01*
X110810082Y-62285400D01*
X110986778Y-62320547D01*
G37*
G36*
X106922778Y-62320547D02*
G01*
X107089224Y-62389491D01*
X107239022Y-62489583D01*
X107366417Y-62616978D01*
X107466509Y-62766776D01*
X107535453Y-62933222D01*
X107570600Y-63109918D01*
X107570600Y-63290082D01*
X107535453Y-63466778D01*
X107466509Y-63633224D01*
X107366417Y-63783022D01*
X107239022Y-63910417D01*
X107089224Y-64010509D01*
X106922778Y-64079453D01*
X106746082Y-64114600D01*
X106565918Y-64114600D01*
X106389222Y-64079453D01*
X106222776Y-64010509D01*
X106072978Y-63910417D01*
X105945583Y-63783022D01*
X105845491Y-63633224D01*
X105776547Y-63466778D01*
X105741400Y-63290082D01*
X105741400Y-63109918D01*
X105776547Y-62933222D01*
X105845491Y-62766776D01*
X105945583Y-62616978D01*
X106072978Y-62489583D01*
X106222776Y-62389491D01*
X106389222Y-62320547D01*
X106565918Y-62285400D01*
X106746082Y-62285400D01*
X106922778Y-62320547D01*
G37*
G36*
X104382778Y-62320547D02*
G01*
X104549224Y-62389491D01*
X104699022Y-62489583D01*
X104826417Y-62616978D01*
X104926509Y-62766776D01*
X104995453Y-62933222D01*
X105030600Y-63109918D01*
X105030600Y-63290082D01*
X104995453Y-63466778D01*
X104926509Y-63633224D01*
X104826417Y-63783022D01*
X104699022Y-63910417D01*
X104549224Y-64010509D01*
X104382778Y-64079453D01*
X104206082Y-64114600D01*
X104025918Y-64114600D01*
X103849222Y-64079453D01*
X103682776Y-64010509D01*
X103532978Y-63910417D01*
X103405583Y-63783022D01*
X103305491Y-63633224D01*
X103236547Y-63466778D01*
X103201400Y-63290082D01*
X103201400Y-63109918D01*
X103236547Y-62933222D01*
X103305491Y-62766776D01*
X103405583Y-62616978D01*
X103532978Y-62489583D01*
X103682776Y-62389491D01*
X103849222Y-62320547D01*
X104025918Y-62285400D01*
X104206082Y-62285400D01*
X104382778Y-62320547D01*
G37*
G36*
X94222778Y-62320547D02*
G01*
X94389224Y-62389491D01*
X94539022Y-62489583D01*
X94666417Y-62616978D01*
X94766509Y-62766776D01*
X94835453Y-62933222D01*
X94870600Y-63109918D01*
X94870600Y-63290082D01*
X94835453Y-63466778D01*
X94766509Y-63633224D01*
X94666417Y-63783022D01*
X94539022Y-63910417D01*
X94389224Y-64010509D01*
X94222778Y-64079453D01*
X94046082Y-64114600D01*
X93865918Y-64114600D01*
X93689222Y-64079453D01*
X93522776Y-64010509D01*
X93372978Y-63910417D01*
X93245583Y-63783022D01*
X93145491Y-63633224D01*
X93076547Y-63466778D01*
X93041400Y-63290082D01*
X93041400Y-63109918D01*
X93076547Y-62933222D01*
X93145491Y-62766776D01*
X93245583Y-62616978D01*
X93372978Y-62489583D01*
X93522776Y-62389491D01*
X93689222Y-62320547D01*
X93865918Y-62285400D01*
X94046082Y-62285400D01*
X94222778Y-62320547D01*
G37*
G36*
X101842778Y-62320547D02*
G01*
X102009224Y-62389491D01*
X102159022Y-62489583D01*
X102286417Y-62616978D01*
X102386509Y-62766776D01*
X102455453Y-62933222D01*
X102490600Y-63109918D01*
X102490600Y-63290082D01*
X102455453Y-63466778D01*
X102386509Y-63633224D01*
X102286417Y-63783022D01*
X102159022Y-63910417D01*
X102009224Y-64010509D01*
X101842778Y-64079453D01*
X101666082Y-64114600D01*
X101485918Y-64114600D01*
X101309222Y-64079453D01*
X101142776Y-64010509D01*
X100992978Y-63910417D01*
X100865583Y-63783022D01*
X100765491Y-63633224D01*
X100696547Y-63466778D01*
X100661400Y-63290082D01*
X100661400Y-63109918D01*
X100696547Y-62933222D01*
X100765491Y-62766776D01*
X100865583Y-62616978D01*
X100992978Y-62489583D01*
X101142776Y-62389491D01*
X101309222Y-62320547D01*
X101485918Y-62285400D01*
X101666082Y-62285400D01*
X101842778Y-62320547D01*
G37*
G36*
X96762778Y-62320547D02*
G01*
X96929224Y-62389491D01*
X97079022Y-62489583D01*
X97206417Y-62616978D01*
X97306509Y-62766776D01*
X97375453Y-62933222D01*
X97410600Y-63109918D01*
X97410600Y-63290082D01*
X97375453Y-63466778D01*
X97306509Y-63633224D01*
X97206417Y-63783022D01*
X97079022Y-63910417D01*
X96929224Y-64010509D01*
X96762778Y-64079453D01*
X96586082Y-64114600D01*
X96405918Y-64114600D01*
X96229222Y-64079453D01*
X96062776Y-64010509D01*
X95912978Y-63910417D01*
X95785583Y-63783022D01*
X95685491Y-63633224D01*
X95616547Y-63466778D01*
X95581400Y-63290082D01*
X95581400Y-63109918D01*
X95616547Y-62933222D01*
X95685491Y-62766776D01*
X95785583Y-62616978D01*
X95912978Y-62489583D01*
X96062776Y-62389491D01*
X96229222Y-62320547D01*
X96405918Y-62285400D01*
X96586082Y-62285400D01*
X96762778Y-62320547D01*
G37*
G36*
X84062778Y-62320547D02*
G01*
X84229224Y-62389491D01*
X84379022Y-62489583D01*
X84506417Y-62616978D01*
X84606509Y-62766776D01*
X84675453Y-62933222D01*
X84710600Y-63109918D01*
X84710600Y-63290082D01*
X84675453Y-63466778D01*
X84606509Y-63633224D01*
X84506417Y-63783022D01*
X84379022Y-63910417D01*
X84229224Y-64010509D01*
X84062778Y-64079453D01*
X83886082Y-64114600D01*
X83705918Y-64114600D01*
X83529222Y-64079453D01*
X83362776Y-64010509D01*
X83212978Y-63910417D01*
X83085583Y-63783022D01*
X82985491Y-63633224D01*
X82916547Y-63466778D01*
X82881400Y-63290082D01*
X82881400Y-63109918D01*
X82916547Y-62933222D01*
X82985491Y-62766776D01*
X83085583Y-62616978D01*
X83212978Y-62489583D01*
X83362776Y-62389491D01*
X83529222Y-62320547D01*
X83705918Y-62285400D01*
X83886082Y-62285400D01*
X84062778Y-62320547D01*
G37*
G36*
X86602778Y-62320547D02*
G01*
X86769224Y-62389491D01*
X86919022Y-62489583D01*
X87046417Y-62616978D01*
X87146509Y-62766776D01*
X87215453Y-62933222D01*
X87250600Y-63109918D01*
X87250600Y-63290082D01*
X87215453Y-63466778D01*
X87146509Y-63633224D01*
X87046417Y-63783022D01*
X86919022Y-63910417D01*
X86769224Y-64010509D01*
X86602778Y-64079453D01*
X86426082Y-64114600D01*
X86245918Y-64114600D01*
X86069222Y-64079453D01*
X85902776Y-64010509D01*
X85752978Y-63910417D01*
X85625583Y-63783022D01*
X85525491Y-63633224D01*
X85456547Y-63466778D01*
X85421400Y-63290082D01*
X85421400Y-63109918D01*
X85456547Y-62933222D01*
X85525491Y-62766776D01*
X85625583Y-62616978D01*
X85752978Y-62489583D01*
X85902776Y-62389491D01*
X86069222Y-62320547D01*
X86245918Y-62285400D01*
X86426082Y-62285400D01*
X86602778Y-62320547D01*
G37*
G36*
X89142778Y-62320547D02*
G01*
X89309224Y-62389491D01*
X89459022Y-62489583D01*
X89586417Y-62616978D01*
X89686509Y-62766776D01*
X89755453Y-62933222D01*
X89790600Y-63109918D01*
X89790600Y-63290082D01*
X89755453Y-63466778D01*
X89686509Y-63633224D01*
X89586417Y-63783022D01*
X89459022Y-63910417D01*
X89309224Y-64010509D01*
X89142778Y-64079453D01*
X88966082Y-64114600D01*
X88785918Y-64114600D01*
X88609222Y-64079453D01*
X88442776Y-64010509D01*
X88292978Y-63910417D01*
X88165583Y-63783022D01*
X88065491Y-63633224D01*
X87996547Y-63466778D01*
X87961400Y-63290082D01*
X87961400Y-63109918D01*
X87996547Y-62933222D01*
X88065491Y-62766776D01*
X88165583Y-62616978D01*
X88292978Y-62489583D01*
X88442776Y-62389491D01*
X88609222Y-62320547D01*
X88785918Y-62285400D01*
X88966082Y-62285400D01*
X89142778Y-62320547D01*
G37*
G36*
X91682778Y-62320547D02*
G01*
X91849224Y-62389491D01*
X91999022Y-62489583D01*
X92126417Y-62616978D01*
X92226509Y-62766776D01*
X92295453Y-62933222D01*
X92330600Y-63109918D01*
X92330600Y-63290082D01*
X92295453Y-63466778D01*
X92226509Y-63633224D01*
X92126417Y-63783022D01*
X91999022Y-63910417D01*
X91849224Y-64010509D01*
X91682778Y-64079453D01*
X91506082Y-64114600D01*
X91325918Y-64114600D01*
X91149222Y-64079453D01*
X90982776Y-64010509D01*
X90832978Y-63910417D01*
X90705583Y-63783022D01*
X90605491Y-63633224D01*
X90536547Y-63466778D01*
X90501400Y-63290082D01*
X90501400Y-63109918D01*
X90536547Y-62933222D01*
X90605491Y-62766776D01*
X90705583Y-62616978D01*
X90832978Y-62489583D01*
X90982776Y-62389491D01*
X91149222Y-62320547D01*
X91325918Y-62285400D01*
X91506082Y-62285400D01*
X91682778Y-62320547D01*
G37*
G36*
X81319928Y-56451764D02*
G01*
X81341009Y-56458160D01*
X81360445Y-56468548D01*
X81377476Y-56482524D01*
X81391452Y-56499555D01*
X81401840Y-56518991D01*
X81408236Y-56540072D01*
X81411000Y-56568140D01*
X81411000Y-58381860D01*
X81408236Y-58409928D01*
X81401840Y-58431009D01*
X81391452Y-58450445D01*
X81377476Y-58467476D01*
X81360445Y-58481452D01*
X81341009Y-58491840D01*
X81319928Y-58498236D01*
X81291860Y-58501000D01*
X80828140Y-58501000D01*
X80800072Y-58498236D01*
X80778991Y-58491840D01*
X80759555Y-58481452D01*
X80742524Y-58467476D01*
X80728548Y-58450445D01*
X80718160Y-58431009D01*
X80711764Y-58409928D01*
X80709000Y-58381860D01*
X80709000Y-56568140D01*
X80711764Y-56540072D01*
X80718160Y-56518991D01*
X80728548Y-56499555D01*
X80742524Y-56482524D01*
X80759555Y-56468548D01*
X80778991Y-56458160D01*
X80800072Y-56451764D01*
X80828140Y-56449000D01*
X81291860Y-56449000D01*
X81319928Y-56451764D01*
G37*
G36*
X87669928Y-56451764D02*
G01*
X87691009Y-56458160D01*
X87710445Y-56468548D01*
X87727476Y-56482524D01*
X87741452Y-56499555D01*
X87751840Y-56518991D01*
X87758236Y-56540072D01*
X87761000Y-56568140D01*
X87761000Y-58381860D01*
X87758236Y-58409928D01*
X87751840Y-58431009D01*
X87741452Y-58450445D01*
X87727476Y-58467476D01*
X87710445Y-58481452D01*
X87691009Y-58491840D01*
X87669928Y-58498236D01*
X87641860Y-58501000D01*
X87178140Y-58501000D01*
X87150072Y-58498236D01*
X87128991Y-58491840D01*
X87109555Y-58481452D01*
X87092524Y-58467476D01*
X87078548Y-58450445D01*
X87068160Y-58431009D01*
X87061764Y-58409928D01*
X87059000Y-58381860D01*
X87059000Y-56568140D01*
X87061764Y-56540072D01*
X87068160Y-56518991D01*
X87078548Y-56499555D01*
X87092524Y-56482524D01*
X87109555Y-56468548D01*
X87128991Y-56458160D01*
X87150072Y-56451764D01*
X87178140Y-56449000D01*
X87641860Y-56449000D01*
X87669928Y-56451764D01*
G37*
G36*
X86399928Y-56451764D02*
G01*
X86421009Y-56458160D01*
X86440445Y-56468548D01*
X86457476Y-56482524D01*
X86471452Y-56499555D01*
X86481840Y-56518991D01*
X86488236Y-56540072D01*
X86491000Y-56568140D01*
X86491000Y-58381860D01*
X86488236Y-58409928D01*
X86481840Y-58431009D01*
X86471452Y-58450445D01*
X86457476Y-58467476D01*
X86440445Y-58481452D01*
X86421009Y-58491840D01*
X86399928Y-58498236D01*
X86371860Y-58501000D01*
X85908140Y-58501000D01*
X85880072Y-58498236D01*
X85858991Y-58491840D01*
X85839555Y-58481452D01*
X85822524Y-58467476D01*
X85808548Y-58450445D01*
X85798160Y-58431009D01*
X85791764Y-58409928D01*
X85789000Y-58381860D01*
X85789000Y-56568140D01*
X85791764Y-56540072D01*
X85798160Y-56518991D01*
X85808548Y-56499555D01*
X85822524Y-56482524D01*
X85839555Y-56468548D01*
X85858991Y-56458160D01*
X85880072Y-56451764D01*
X85908140Y-56449000D01*
X86371860Y-56449000D01*
X86399928Y-56451764D01*
G37*
G36*
X85129928Y-56451764D02*
G01*
X85151009Y-56458160D01*
X85170445Y-56468548D01*
X85187476Y-56482524D01*
X85201452Y-56499555D01*
X85211840Y-56518991D01*
X85218236Y-56540072D01*
X85221000Y-56568140D01*
X85221000Y-58381860D01*
X85218236Y-58409928D01*
X85211840Y-58431009D01*
X85201452Y-58450445D01*
X85187476Y-58467476D01*
X85170445Y-58481452D01*
X85151009Y-58491840D01*
X85129928Y-58498236D01*
X85101860Y-58501000D01*
X84638140Y-58501000D01*
X84610072Y-58498236D01*
X84588991Y-58491840D01*
X84569555Y-58481452D01*
X84552524Y-58467476D01*
X84538548Y-58450445D01*
X84528160Y-58431009D01*
X84521764Y-58409928D01*
X84519000Y-58381860D01*
X84519000Y-56568140D01*
X84521764Y-56540072D01*
X84528160Y-56518991D01*
X84538548Y-56499555D01*
X84552524Y-56482524D01*
X84569555Y-56468548D01*
X84588991Y-56458160D01*
X84610072Y-56451764D01*
X84638140Y-56449000D01*
X85101860Y-56449000D01*
X85129928Y-56451764D01*
G37*
G36*
X83859928Y-56451764D02*
G01*
X83881009Y-56458160D01*
X83900445Y-56468548D01*
X83917476Y-56482524D01*
X83931452Y-56499555D01*
X83941840Y-56518991D01*
X83948236Y-56540072D01*
X83951000Y-56568140D01*
X83951000Y-58381860D01*
X83948236Y-58409928D01*
X83941840Y-58431009D01*
X83931452Y-58450445D01*
X83917476Y-58467476D01*
X83900445Y-58481452D01*
X83881009Y-58491840D01*
X83859928Y-58498236D01*
X83831860Y-58501000D01*
X83368140Y-58501000D01*
X83340072Y-58498236D01*
X83318991Y-58491840D01*
X83299555Y-58481452D01*
X83282524Y-58467476D01*
X83268548Y-58450445D01*
X83258160Y-58431009D01*
X83251764Y-58409928D01*
X83249000Y-58381860D01*
X83249000Y-56568140D01*
X83251764Y-56540072D01*
X83258160Y-56518991D01*
X83268548Y-56499555D01*
X83282524Y-56482524D01*
X83299555Y-56468548D01*
X83318991Y-56458160D01*
X83340072Y-56451764D01*
X83368140Y-56449000D01*
X83831860Y-56449000D01*
X83859928Y-56451764D01*
G37*
G36*
X82589928Y-56451764D02*
G01*
X82611009Y-56458160D01*
X82630445Y-56468548D01*
X82647476Y-56482524D01*
X82661452Y-56499555D01*
X82671840Y-56518991D01*
X82678236Y-56540072D01*
X82681000Y-56568140D01*
X82681000Y-58381860D01*
X82678236Y-58409928D01*
X82671840Y-58431009D01*
X82661452Y-58450445D01*
X82647476Y-58467476D01*
X82630445Y-58481452D01*
X82611009Y-58491840D01*
X82589928Y-58498236D01*
X82561860Y-58501000D01*
X82098140Y-58501000D01*
X82070072Y-58498236D01*
X82048991Y-58491840D01*
X82029555Y-58481452D01*
X82012524Y-58467476D01*
X81998548Y-58450445D01*
X81988160Y-58431009D01*
X81981764Y-58409928D01*
X81979000Y-58381860D01*
X81979000Y-56568140D01*
X81981764Y-56540072D01*
X81988160Y-56518991D01*
X81998548Y-56499555D01*
X82012524Y-56482524D01*
X82029555Y-56468548D01*
X82048991Y-56458160D01*
X82070072Y-56451764D01*
X82098140Y-56449000D01*
X82561860Y-56449000D01*
X82589928Y-56451764D01*
G37*
G36*
X80049928Y-56451764D02*
G01*
X80071009Y-56458160D01*
X80090445Y-56468548D01*
X80107476Y-56482524D01*
X80121452Y-56499555D01*
X80131840Y-56518991D01*
X80138236Y-56540072D01*
X80141000Y-56568140D01*
X80141000Y-58381860D01*
X80138236Y-58409928D01*
X80131840Y-58431009D01*
X80121452Y-58450445D01*
X80107476Y-58467476D01*
X80090445Y-58481452D01*
X80071009Y-58491840D01*
X80049928Y-58498236D01*
X80021860Y-58501000D01*
X79558140Y-58501000D01*
X79530072Y-58498236D01*
X79508991Y-58491840D01*
X79489555Y-58481452D01*
X79472524Y-58467476D01*
X79458548Y-58450445D01*
X79448160Y-58431009D01*
X79441764Y-58409928D01*
X79439000Y-58381860D01*
X79439000Y-56568140D01*
X79441764Y-56540072D01*
X79448160Y-56518991D01*
X79458548Y-56499555D01*
X79472524Y-56482524D01*
X79489555Y-56468548D01*
X79508991Y-56458160D01*
X79530072Y-56451764D01*
X79558140Y-56449000D01*
X80021860Y-56449000D01*
X80049928Y-56451764D01*
G37*
G36*
X87669928Y-51501764D02*
G01*
X87691009Y-51508160D01*
X87710445Y-51518548D01*
X87727476Y-51532524D01*
X87741452Y-51549555D01*
X87751840Y-51568991D01*
X87758236Y-51590072D01*
X87761000Y-51618140D01*
X87761000Y-53431860D01*
X87758236Y-53459928D01*
X87751840Y-53481009D01*
X87741452Y-53500445D01*
X87727476Y-53517476D01*
X87710445Y-53531452D01*
X87691009Y-53541840D01*
X87669928Y-53548236D01*
X87641860Y-53551000D01*
X87178140Y-53551000D01*
X87150072Y-53548236D01*
X87128991Y-53541840D01*
X87109555Y-53531452D01*
X87092524Y-53517476D01*
X87078548Y-53500445D01*
X87068160Y-53481009D01*
X87061764Y-53459928D01*
X87059000Y-53431860D01*
X87059000Y-51618140D01*
X87061764Y-51590072D01*
X87068160Y-51568991D01*
X87078548Y-51549555D01*
X87092524Y-51532524D01*
X87109555Y-51518548D01*
X87128991Y-51508160D01*
X87150072Y-51501764D01*
X87178140Y-51499000D01*
X87641860Y-51499000D01*
X87669928Y-51501764D01*
G37*
G36*
X86399928Y-51501764D02*
G01*
X86421009Y-51508160D01*
X86440445Y-51518548D01*
X86457476Y-51532524D01*
X86471452Y-51549555D01*
X86481840Y-51568991D01*
X86488236Y-51590072D01*
X86491000Y-51618140D01*
X86491000Y-53431860D01*
X86488236Y-53459928D01*
X86481840Y-53481009D01*
X86471452Y-53500445D01*
X86457476Y-53517476D01*
X86440445Y-53531452D01*
X86421009Y-53541840D01*
X86399928Y-53548236D01*
X86371860Y-53551000D01*
X85908140Y-53551000D01*
X85880072Y-53548236D01*
X85858991Y-53541840D01*
X85839555Y-53531452D01*
X85822524Y-53517476D01*
X85808548Y-53500445D01*
X85798160Y-53481009D01*
X85791764Y-53459928D01*
X85789000Y-53431860D01*
X85789000Y-51618140D01*
X85791764Y-51590072D01*
X85798160Y-51568991D01*
X85808548Y-51549555D01*
X85822524Y-51532524D01*
X85839555Y-51518548D01*
X85858991Y-51508160D01*
X85880072Y-51501764D01*
X85908140Y-51499000D01*
X86371860Y-51499000D01*
X86399928Y-51501764D01*
G37*
G36*
X82589928Y-51501764D02*
G01*
X82611009Y-51508160D01*
X82630445Y-51518548D01*
X82647476Y-51532524D01*
X82661452Y-51549555D01*
X82671840Y-51568991D01*
X82678236Y-51590072D01*
X82681000Y-51618140D01*
X82681000Y-53431860D01*
X82678236Y-53459928D01*
X82671840Y-53481009D01*
X82661452Y-53500445D01*
X82647476Y-53517476D01*
X82630445Y-53531452D01*
X82611009Y-53541840D01*
X82589928Y-53548236D01*
X82561860Y-53551000D01*
X82098140Y-53551000D01*
X82070072Y-53548236D01*
X82048991Y-53541840D01*
X82029555Y-53531452D01*
X82012524Y-53517476D01*
X81998548Y-53500445D01*
X81988160Y-53481009D01*
X81981764Y-53459928D01*
X81979000Y-53431860D01*
X81979000Y-51618140D01*
X81981764Y-51590072D01*
X81988160Y-51568991D01*
X81998548Y-51549555D01*
X82012524Y-51532524D01*
X82029555Y-51518548D01*
X82048991Y-51508160D01*
X82070072Y-51501764D01*
X82098140Y-51499000D01*
X82561860Y-51499000D01*
X82589928Y-51501764D01*
G37*
G36*
X85129928Y-51501764D02*
G01*
X85151009Y-51508160D01*
X85170445Y-51518548D01*
X85187476Y-51532524D01*
X85201452Y-51549555D01*
X85211840Y-51568991D01*
X85218236Y-51590072D01*
X85221000Y-51618140D01*
X85221000Y-53431860D01*
X85218236Y-53459928D01*
X85211840Y-53481009D01*
X85201452Y-53500445D01*
X85187476Y-53517476D01*
X85170445Y-53531452D01*
X85151009Y-53541840D01*
X85129928Y-53548236D01*
X85101860Y-53551000D01*
X84638140Y-53551000D01*
X84610072Y-53548236D01*
X84588991Y-53541840D01*
X84569555Y-53531452D01*
X84552524Y-53517476D01*
X84538548Y-53500445D01*
X84528160Y-53481009D01*
X84521764Y-53459928D01*
X84519000Y-53431860D01*
X84519000Y-51618140D01*
X84521764Y-51590072D01*
X84528160Y-51568991D01*
X84538548Y-51549555D01*
X84552524Y-51532524D01*
X84569555Y-51518548D01*
X84588991Y-51508160D01*
X84610072Y-51501764D01*
X84638140Y-51499000D01*
X85101860Y-51499000D01*
X85129928Y-51501764D01*
G37*
G36*
X81319928Y-51501764D02*
G01*
X81341009Y-51508160D01*
X81360445Y-51518548D01*
X81377476Y-51532524D01*
X81391452Y-51549555D01*
X81401840Y-51568991D01*
X81408236Y-51590072D01*
X81411000Y-51618140D01*
X81411000Y-53431860D01*
X81408236Y-53459928D01*
X81401840Y-53481009D01*
X81391452Y-53500445D01*
X81377476Y-53517476D01*
X81360445Y-53531452D01*
X81341009Y-53541840D01*
X81319928Y-53548236D01*
X81291860Y-53551000D01*
X80828140Y-53551000D01*
X80800072Y-53548236D01*
X80778991Y-53541840D01*
X80759555Y-53531452D01*
X80742524Y-53517476D01*
X80728548Y-53500445D01*
X80718160Y-53481009D01*
X80711764Y-53459928D01*
X80709000Y-53431860D01*
X80709000Y-51618140D01*
X80711764Y-51590072D01*
X80718160Y-51568991D01*
X80728548Y-51549555D01*
X80742524Y-51532524D01*
X80759555Y-51518548D01*
X80778991Y-51508160D01*
X80800072Y-51501764D01*
X80828140Y-51499000D01*
X81291860Y-51499000D01*
X81319928Y-51501764D01*
G37*
G36*
X80049928Y-51501764D02*
G01*
X80071009Y-51508160D01*
X80090445Y-51518548D01*
X80107476Y-51532524D01*
X80121452Y-51549555D01*
X80131840Y-51568991D01*
X80138236Y-51590072D01*
X80141000Y-51618140D01*
X80141000Y-53431860D01*
X80138236Y-53459928D01*
X80131840Y-53481009D01*
X80121452Y-53500445D01*
X80107476Y-53517476D01*
X80090445Y-53531452D01*
X80071009Y-53541840D01*
X80049928Y-53548236D01*
X80021860Y-53551000D01*
X79558140Y-53551000D01*
X79530072Y-53548236D01*
X79508991Y-53541840D01*
X79489555Y-53531452D01*
X79472524Y-53517476D01*
X79458548Y-53500445D01*
X79448160Y-53481009D01*
X79441764Y-53459928D01*
X79439000Y-53431860D01*
X79439000Y-51618140D01*
X79441764Y-51590072D01*
X79448160Y-51568991D01*
X79458548Y-51549555D01*
X79472524Y-51532524D01*
X79489555Y-51518548D01*
X79508991Y-51508160D01*
X79530072Y-51501764D01*
X79558140Y-51499000D01*
X80021860Y-51499000D01*
X80049928Y-51501764D01*
G37*
G36*
X83859928Y-51501764D02*
G01*
X83881009Y-51508160D01*
X83900445Y-51518548D01*
X83917476Y-51532524D01*
X83931452Y-51549555D01*
X83941840Y-51568991D01*
X83948236Y-51590072D01*
X83951000Y-51618140D01*
X83951000Y-53431860D01*
X83948236Y-53459928D01*
X83941840Y-53481009D01*
X83931452Y-53500445D01*
X83917476Y-53517476D01*
X83900445Y-53531452D01*
X83881009Y-53541840D01*
X83859928Y-53548236D01*
X83831860Y-53551000D01*
X83368140Y-53551000D01*
X83340072Y-53548236D01*
X83318991Y-53541840D01*
X83299555Y-53531452D01*
X83282524Y-53517476D01*
X83268548Y-53500445D01*
X83258160Y-53481009D01*
X83251764Y-53459928D01*
X83249000Y-53431860D01*
X83249000Y-51618140D01*
X83251764Y-51590072D01*
X83258160Y-51568991D01*
X83268548Y-51549555D01*
X83282524Y-51532524D01*
X83299555Y-51518548D01*
X83318991Y-51508160D01*
X83340072Y-51501764D01*
X83368140Y-51499000D01*
X83831860Y-51499000D01*
X83859928Y-51501764D01*
G37*
G36*
X75757142Y-39758242D02*
G01*
X75905101Y-39819529D01*
X76038255Y-39908499D01*
X76151501Y-40021745D01*
X76240471Y-40154899D01*
X76301758Y-40302858D01*
X76333000Y-40459925D01*
X76333000Y-40620075D01*
X76301758Y-40777142D01*
X76240471Y-40925101D01*
X76151501Y-41058255D01*
X76038255Y-41171501D01*
X75905101Y-41260471D01*
X75757142Y-41321758D01*
X75600075Y-41353000D01*
X75439925Y-41353000D01*
X75282858Y-41321758D01*
X75134899Y-41260471D01*
X75001745Y-41171501D01*
X74888499Y-41058255D01*
X74799529Y-40925101D01*
X74738242Y-40777142D01*
X74707000Y-40620075D01*
X74707000Y-40459925D01*
X74738242Y-40302858D01*
X74799529Y-40154899D01*
X74888499Y-40021745D01*
X75001745Y-39908499D01*
X75134899Y-39819529D01*
X75282858Y-39758242D01*
X75439925Y-39727000D01*
X75600075Y-39727000D01*
X75757142Y-39758242D01*
G37*
G36*
X85917142Y-39758242D02*
G01*
X86065101Y-39819529D01*
X86198255Y-39908499D01*
X86311501Y-40021745D01*
X86400471Y-40154899D01*
X86461758Y-40302858D01*
X86493000Y-40459925D01*
X86493000Y-40620075D01*
X86461758Y-40777142D01*
X86400471Y-40925101D01*
X86311501Y-41058255D01*
X86198255Y-41171501D01*
X86065101Y-41260471D01*
X85917142Y-41321758D01*
X85760075Y-41353000D01*
X85599925Y-41353000D01*
X85442858Y-41321758D01*
X85294899Y-41260471D01*
X85161745Y-41171501D01*
X85048499Y-41058255D01*
X84959529Y-40925101D01*
X84898242Y-40777142D01*
X84867000Y-40620075D01*
X84867000Y-40459925D01*
X84898242Y-40302858D01*
X84959529Y-40154899D01*
X85048499Y-40021745D01*
X85161745Y-39908499D01*
X85294899Y-39819529D01*
X85442858Y-39758242D01*
X85599925Y-39727000D01*
X85760075Y-39727000D01*
X85917142Y-39758242D01*
G37*
G36*
X83377142Y-39758242D02*
G01*
X83525101Y-39819529D01*
X83658255Y-39908499D01*
X83771501Y-40021745D01*
X83860471Y-40154899D01*
X83921758Y-40302858D01*
X83953000Y-40459925D01*
X83953000Y-40620075D01*
X83921758Y-40777142D01*
X83860471Y-40925101D01*
X83771501Y-41058255D01*
X83658255Y-41171501D01*
X83525101Y-41260471D01*
X83377142Y-41321758D01*
X83220075Y-41353000D01*
X83059925Y-41353000D01*
X82902858Y-41321758D01*
X82754899Y-41260471D01*
X82621745Y-41171501D01*
X82508499Y-41058255D01*
X82419529Y-40925101D01*
X82358242Y-40777142D01*
X82327000Y-40620075D01*
X82327000Y-40459925D01*
X82358242Y-40302858D01*
X82419529Y-40154899D01*
X82508499Y-40021745D01*
X82621745Y-39908499D01*
X82754899Y-39819529D01*
X82902858Y-39758242D01*
X83059925Y-39727000D01*
X83220075Y-39727000D01*
X83377142Y-39758242D01*
G37*
G36*
X80837142Y-39758242D02*
G01*
X80985101Y-39819529D01*
X81118255Y-39908499D01*
X81231501Y-40021745D01*
X81320471Y-40154899D01*
X81381758Y-40302858D01*
X81413000Y-40459925D01*
X81413000Y-40620075D01*
X81381758Y-40777142D01*
X81320471Y-40925101D01*
X81231501Y-41058255D01*
X81118255Y-41171501D01*
X80985101Y-41260471D01*
X80837142Y-41321758D01*
X80680075Y-41353000D01*
X80519925Y-41353000D01*
X80362858Y-41321758D01*
X80214899Y-41260471D01*
X80081745Y-41171501D01*
X79968499Y-41058255D01*
X79879529Y-40925101D01*
X79818242Y-40777142D01*
X79787000Y-40620075D01*
X79787000Y-40459925D01*
X79818242Y-40302858D01*
X79879529Y-40154899D01*
X79968499Y-40021745D01*
X80081745Y-39908499D01*
X80214899Y-39819529D01*
X80362858Y-39758242D01*
X80519925Y-39727000D01*
X80680075Y-39727000D01*
X80837142Y-39758242D01*
G37*
G36*
X78297142Y-39758242D02*
G01*
X78445101Y-39819529D01*
X78578255Y-39908499D01*
X78691501Y-40021745D01*
X78780471Y-40154899D01*
X78841758Y-40302858D01*
X78873000Y-40459925D01*
X78873000Y-40620075D01*
X78841758Y-40777142D01*
X78780471Y-40925101D01*
X78691501Y-41058255D01*
X78578255Y-41171501D01*
X78445101Y-41260471D01*
X78297142Y-41321758D01*
X78140075Y-41353000D01*
X77979925Y-41353000D01*
X77822858Y-41321758D01*
X77674899Y-41260471D01*
X77541745Y-41171501D01*
X77428499Y-41058255D01*
X77339529Y-40925101D01*
X77278242Y-40777142D01*
X77247000Y-40620075D01*
X77247000Y-40459925D01*
X77278242Y-40302858D01*
X77339529Y-40154899D01*
X77428499Y-40021745D01*
X77541745Y-39908499D01*
X77674899Y-39819529D01*
X77822858Y-39758242D01*
X77979925Y-39727000D01*
X78140075Y-39727000D01*
X78297142Y-39758242D01*
G37*
G36*
X106237142Y-39758242D02*
G01*
X106385101Y-39819529D01*
X106518255Y-39908499D01*
X106631501Y-40021745D01*
X106720471Y-40154899D01*
X106781758Y-40302858D01*
X106813000Y-40459925D01*
X106813000Y-40620075D01*
X106781758Y-40777142D01*
X106720471Y-40925101D01*
X106631501Y-41058255D01*
X106518255Y-41171501D01*
X106385101Y-41260471D01*
X106237142Y-41321758D01*
X106080075Y-41353000D01*
X105919925Y-41353000D01*
X105762858Y-41321758D01*
X105614899Y-41260471D01*
X105481745Y-41171501D01*
X105368499Y-41058255D01*
X105279529Y-40925101D01*
X105218242Y-40777142D01*
X105187000Y-40620075D01*
X105187000Y-40459925D01*
X105218242Y-40302858D01*
X105279529Y-40154899D01*
X105368499Y-40021745D01*
X105481745Y-39908499D01*
X105614899Y-39819529D01*
X105762858Y-39758242D01*
X105919925Y-39727000D01*
X106080075Y-39727000D01*
X106237142Y-39758242D01*
G37*
G36*
X70677142Y-39758242D02*
G01*
X70825101Y-39819529D01*
X70958255Y-39908499D01*
X71071501Y-40021745D01*
X71160471Y-40154899D01*
X71221758Y-40302858D01*
X71253000Y-40459925D01*
X71253000Y-40620075D01*
X71221758Y-40777142D01*
X71160471Y-40925101D01*
X71071501Y-41058255D01*
X70958255Y-41171501D01*
X70825101Y-41260471D01*
X70677142Y-41321758D01*
X70520075Y-41353000D01*
X70359925Y-41353000D01*
X70202858Y-41321758D01*
X70054899Y-41260471D01*
X69921745Y-41171501D01*
X69808499Y-41058255D01*
X69719529Y-40925101D01*
X69658242Y-40777142D01*
X69627000Y-40620075D01*
X69627000Y-40459925D01*
X69658242Y-40302858D01*
X69719529Y-40154899D01*
X69808499Y-40021745D01*
X69921745Y-39908499D01*
X70054899Y-39819529D01*
X70202858Y-39758242D01*
X70359925Y-39727000D01*
X70520075Y-39727000D01*
X70677142Y-39758242D01*
G37*
G36*
X68137142Y-39758242D02*
G01*
X68285101Y-39819529D01*
X68418255Y-39908499D01*
X68531501Y-40021745D01*
X68620471Y-40154899D01*
X68681758Y-40302858D01*
X68713000Y-40459925D01*
X68713000Y-40620075D01*
X68681758Y-40777142D01*
X68620471Y-40925101D01*
X68531501Y-41058255D01*
X68418255Y-41171501D01*
X68285101Y-41260471D01*
X68137142Y-41321758D01*
X67980075Y-41353000D01*
X67819925Y-41353000D01*
X67662858Y-41321758D01*
X67514899Y-41260471D01*
X67381745Y-41171501D01*
X67268499Y-41058255D01*
X67179529Y-40925101D01*
X67118242Y-40777142D01*
X67087000Y-40620075D01*
X67087000Y-40459925D01*
X67118242Y-40302858D01*
X67179529Y-40154899D01*
X67268499Y-40021745D01*
X67381745Y-39908499D01*
X67514899Y-39819529D01*
X67662858Y-39758242D01*
X67819925Y-39727000D01*
X67980075Y-39727000D01*
X68137142Y-39758242D01*
G37*
G36*
X101157142Y-39758242D02*
G01*
X101305101Y-39819529D01*
X101438255Y-39908499D01*
X101551501Y-40021745D01*
X101640471Y-40154899D01*
X101701758Y-40302858D01*
X101733000Y-40459925D01*
X101733000Y-40620075D01*
X101701758Y-40777142D01*
X101640471Y-40925101D01*
X101551501Y-41058255D01*
X101438255Y-41171501D01*
X101305101Y-41260471D01*
X101157142Y-41321758D01*
X101000075Y-41353000D01*
X100839925Y-41353000D01*
X100682858Y-41321758D01*
X100534899Y-41260471D01*
X100401745Y-41171501D01*
X100288499Y-41058255D01*
X100199529Y-40925101D01*
X100138242Y-40777142D01*
X100107000Y-40620075D01*
X100107000Y-40459925D01*
X100138242Y-40302858D01*
X100199529Y-40154899D01*
X100288499Y-40021745D01*
X100401745Y-39908499D01*
X100534899Y-39819529D01*
X100682858Y-39758242D01*
X100839925Y-39727000D01*
X101000075Y-39727000D01*
X101157142Y-39758242D01*
G37*
G36*
X98617142Y-39758242D02*
G01*
X98765101Y-39819529D01*
X98898255Y-39908499D01*
X99011501Y-40021745D01*
X99100471Y-40154899D01*
X99161758Y-40302858D01*
X99193000Y-40459925D01*
X99193000Y-40620075D01*
X99161758Y-40777142D01*
X99100471Y-40925101D01*
X99011501Y-41058255D01*
X98898255Y-41171501D01*
X98765101Y-41260471D01*
X98617142Y-41321758D01*
X98460075Y-41353000D01*
X98299925Y-41353000D01*
X98142858Y-41321758D01*
X97994899Y-41260471D01*
X97861745Y-41171501D01*
X97748499Y-41058255D01*
X97659529Y-40925101D01*
X97598242Y-40777142D01*
X97567000Y-40620075D01*
X97567000Y-40459925D01*
X97598242Y-40302858D01*
X97659529Y-40154899D01*
X97748499Y-40021745D01*
X97861745Y-39908499D01*
X97994899Y-39819529D01*
X98142858Y-39758242D01*
X98299925Y-39727000D01*
X98460075Y-39727000D01*
X98617142Y-39758242D01*
G37*
G36*
X96077142Y-39758242D02*
G01*
X96225101Y-39819529D01*
X96358255Y-39908499D01*
X96471501Y-40021745D01*
X96560471Y-40154899D01*
X96621758Y-40302858D01*
X96653000Y-40459925D01*
X96653000Y-40620075D01*
X96621758Y-40777142D01*
X96560471Y-40925101D01*
X96471501Y-41058255D01*
X96358255Y-41171501D01*
X96225101Y-41260471D01*
X96077142Y-41321758D01*
X95920075Y-41353000D01*
X95759925Y-41353000D01*
X95602858Y-41321758D01*
X95454899Y-41260471D01*
X95321745Y-41171501D01*
X95208499Y-41058255D01*
X95119529Y-40925101D01*
X95058242Y-40777142D01*
X95027000Y-40620075D01*
X95027000Y-40459925D01*
X95058242Y-40302858D01*
X95119529Y-40154899D01*
X95208499Y-40021745D01*
X95321745Y-39908499D01*
X95454899Y-39819529D01*
X95602858Y-39758242D01*
X95759925Y-39727000D01*
X95920075Y-39727000D01*
X96077142Y-39758242D01*
G37*
G36*
X93537142Y-39758242D02*
G01*
X93685101Y-39819529D01*
X93818255Y-39908499D01*
X93931501Y-40021745D01*
X94020471Y-40154899D01*
X94081758Y-40302858D01*
X94113000Y-40459925D01*
X94113000Y-40620075D01*
X94081758Y-40777142D01*
X94020471Y-40925101D01*
X93931501Y-41058255D01*
X93818255Y-41171501D01*
X93685101Y-41260471D01*
X93537142Y-41321758D01*
X93380075Y-41353000D01*
X93219925Y-41353000D01*
X93062858Y-41321758D01*
X92914899Y-41260471D01*
X92781745Y-41171501D01*
X92668499Y-41058255D01*
X92579529Y-40925101D01*
X92518242Y-40777142D01*
X92487000Y-40620075D01*
X92487000Y-40459925D01*
X92518242Y-40302858D01*
X92579529Y-40154899D01*
X92668499Y-40021745D01*
X92781745Y-39908499D01*
X92914899Y-39819529D01*
X93062858Y-39758242D01*
X93219925Y-39727000D01*
X93380075Y-39727000D01*
X93537142Y-39758242D01*
G37*
G36*
X90997142Y-39758242D02*
G01*
X91145101Y-39819529D01*
X91278255Y-39908499D01*
X91391501Y-40021745D01*
X91480471Y-40154899D01*
X91541758Y-40302858D01*
X91573000Y-40459925D01*
X91573000Y-40620075D01*
X91541758Y-40777142D01*
X91480471Y-40925101D01*
X91391501Y-41058255D01*
X91278255Y-41171501D01*
X91145101Y-41260471D01*
X90997142Y-41321758D01*
X90840075Y-41353000D01*
X90679925Y-41353000D01*
X90522858Y-41321758D01*
X90374899Y-41260471D01*
X90241745Y-41171501D01*
X90128499Y-41058255D01*
X90039529Y-40925101D01*
X89978242Y-40777142D01*
X89947000Y-40620075D01*
X89947000Y-40459925D01*
X89978242Y-40302858D01*
X90039529Y-40154899D01*
X90128499Y-40021745D01*
X90241745Y-39908499D01*
X90374899Y-39819529D01*
X90522858Y-39758242D01*
X90679925Y-39727000D01*
X90840075Y-39727000D01*
X90997142Y-39758242D01*
G37*
G36*
X88457142Y-39758242D02*
G01*
X88605101Y-39819529D01*
X88738255Y-39908499D01*
X88851501Y-40021745D01*
X88940471Y-40154899D01*
X89001758Y-40302858D01*
X89033000Y-40459925D01*
X89033000Y-40620075D01*
X89001758Y-40777142D01*
X88940471Y-40925101D01*
X88851501Y-41058255D01*
X88738255Y-41171501D01*
X88605101Y-41260471D01*
X88457142Y-41321758D01*
X88300075Y-41353000D01*
X88139925Y-41353000D01*
X87982858Y-41321758D01*
X87834899Y-41260471D01*
X87701745Y-41171501D01*
X87588499Y-41058255D01*
X87499529Y-40925101D01*
X87438242Y-40777142D01*
X87407000Y-40620075D01*
X87407000Y-40459925D01*
X87438242Y-40302858D01*
X87499529Y-40154899D01*
X87588499Y-40021745D01*
X87701745Y-39908499D01*
X87834899Y-39819529D01*
X87982858Y-39758242D01*
X88139925Y-39727000D01*
X88300075Y-39727000D01*
X88457142Y-39758242D01*
G37*
G36*
X73217142Y-39758242D02*
G01*
X73365101Y-39819529D01*
X73498255Y-39908499D01*
X73611501Y-40021745D01*
X73700471Y-40154899D01*
X73761758Y-40302858D01*
X73793000Y-40459925D01*
X73793000Y-40620075D01*
X73761758Y-40777142D01*
X73700471Y-40925101D01*
X73611501Y-41058255D01*
X73498255Y-41171501D01*
X73365101Y-41260471D01*
X73217142Y-41321758D01*
X73060075Y-41353000D01*
X72899925Y-41353000D01*
X72742858Y-41321758D01*
X72594899Y-41260471D01*
X72461745Y-41171501D01*
X72348499Y-41058255D01*
X72259529Y-40925101D01*
X72198242Y-40777142D01*
X72167000Y-40620075D01*
X72167000Y-40459925D01*
X72198242Y-40302858D01*
X72259529Y-40154899D01*
X72348499Y-40021745D01*
X72461745Y-39908499D01*
X72594899Y-39819529D01*
X72742858Y-39758242D01*
X72899925Y-39727000D01*
X73060075Y-39727000D01*
X73217142Y-39758242D01*
G37*
G36*
X103697142Y-39758242D02*
G01*
X103845101Y-39819529D01*
X103978255Y-39908499D01*
X104091501Y-40021745D01*
X104180471Y-40154899D01*
X104241758Y-40302858D01*
X104273000Y-40459925D01*
X104273000Y-40620075D01*
X104241758Y-40777142D01*
X104180471Y-40925101D01*
X104091501Y-41058255D01*
X103978255Y-41171501D01*
X103845101Y-41260471D01*
X103697142Y-41321758D01*
X103540075Y-41353000D01*
X103379925Y-41353000D01*
X103222858Y-41321758D01*
X103074899Y-41260471D01*
X102941745Y-41171501D01*
X102828499Y-41058255D01*
X102739529Y-40925101D01*
X102678242Y-40777142D01*
X102647000Y-40620075D01*
X102647000Y-40459925D01*
X102678242Y-40302858D01*
X102739529Y-40154899D01*
X102828499Y-40021745D01*
X102941745Y-39908499D01*
X103074899Y-39819529D01*
X103222858Y-39758242D01*
X103379925Y-39727000D01*
X103540075Y-39727000D01*
X103697142Y-39758242D01*
G37*
G36*
X67233512Y-35103927D02*
G01*
X67382812Y-35133624D01*
X67546784Y-35201544D01*
X67694354Y-35300147D01*
X67819853Y-35425646D01*
X67918456Y-35573216D01*
X67986376Y-35737188D01*
X68021000Y-35911259D01*
X68021000Y-36088741D01*
X67986376Y-36262812D01*
X67918456Y-36426784D01*
X67819853Y-36574354D01*
X67694354Y-36699853D01*
X67546784Y-36798456D01*
X67382812Y-36866376D01*
X67233512Y-36896073D01*
X67208742Y-36901000D01*
X67031258Y-36901000D01*
X67006488Y-36896073D01*
X66857188Y-36866376D01*
X66693216Y-36798456D01*
X66545646Y-36699853D01*
X66420147Y-36574354D01*
X66321544Y-36426784D01*
X66253624Y-36262812D01*
X66219000Y-36088741D01*
X66219000Y-35911259D01*
X66253624Y-35737188D01*
X66321544Y-35573216D01*
X66420147Y-35425646D01*
X66545646Y-35300147D01*
X66693216Y-35201544D01*
X66857188Y-35133624D01*
X67006488Y-35103927D01*
X67031258Y-35099000D01*
X67208742Y-35099000D01*
X67233512Y-35103927D01*
G37*
G36*
X69773512Y-35103927D02*
G01*
X69922812Y-35133624D01*
X70086784Y-35201544D01*
X70234354Y-35300147D01*
X70359853Y-35425646D01*
X70458456Y-35573216D01*
X70526376Y-35737188D01*
X70561000Y-35911259D01*
X70561000Y-36088741D01*
X70526376Y-36262812D01*
X70458456Y-36426784D01*
X70359853Y-36574354D01*
X70234354Y-36699853D01*
X70086784Y-36798456D01*
X69922812Y-36866376D01*
X69773512Y-36896073D01*
X69748742Y-36901000D01*
X69571258Y-36901000D01*
X69546488Y-36896073D01*
X69397188Y-36866376D01*
X69233216Y-36798456D01*
X69085646Y-36699853D01*
X68960147Y-36574354D01*
X68861544Y-36426784D01*
X68793624Y-36262812D01*
X68759000Y-36088741D01*
X68759000Y-35911259D01*
X68793624Y-35737188D01*
X68861544Y-35573216D01*
X68960147Y-35425646D01*
X69085646Y-35300147D01*
X69233216Y-35201544D01*
X69397188Y-35133624D01*
X69546488Y-35103927D01*
X69571258Y-35099000D01*
X69748742Y-35099000D01*
X69773512Y-35103927D01*
G37*
G36*
X73101000Y-36901000D02*
G01*
X71299000Y-36901000D01*
X71299000Y-35099000D01*
X73101000Y-35099000D01*
X73101000Y-36901000D01*
G37*
G36*
X77833512Y-35103927D02*
G01*
X77982812Y-35133624D01*
X78146784Y-35201544D01*
X78294354Y-35300147D01*
X78419853Y-35425646D01*
X78518456Y-35573216D01*
X78586376Y-35737188D01*
X78621000Y-35911259D01*
X78621000Y-36088741D01*
X78586376Y-36262812D01*
X78518456Y-36426784D01*
X78419853Y-36574354D01*
X78294354Y-36699853D01*
X78146784Y-36798456D01*
X77982812Y-36866376D01*
X77833512Y-36896073D01*
X77808742Y-36901000D01*
X77631258Y-36901000D01*
X77606488Y-36896073D01*
X77457188Y-36866376D01*
X77293216Y-36798456D01*
X77145646Y-36699853D01*
X77020147Y-36574354D01*
X76921544Y-36426784D01*
X76853624Y-36262812D01*
X76819000Y-36088741D01*
X76819000Y-35911259D01*
X76853624Y-35737188D01*
X76921544Y-35573216D01*
X77020147Y-35425646D01*
X77145646Y-35300147D01*
X77293216Y-35201544D01*
X77457188Y-35133624D01*
X77606488Y-35103927D01*
X77631258Y-35099000D01*
X77808742Y-35099000D01*
X77833512Y-35103927D01*
G37*
G36*
X83701000Y-36901000D02*
G01*
X81899000Y-36901000D01*
X81899000Y-35099000D01*
X83701000Y-35099000D01*
X83701000Y-36901000D01*
G37*
G36*
X94033512Y-35103927D02*
G01*
X94182812Y-35133624D01*
X94346784Y-35201544D01*
X94494354Y-35300147D01*
X94619853Y-35425646D01*
X94718456Y-35573216D01*
X94786376Y-35737188D01*
X94821000Y-35911259D01*
X94821000Y-36088741D01*
X94786376Y-36262812D01*
X94718456Y-36426784D01*
X94619853Y-36574354D01*
X94494354Y-36699853D01*
X94346784Y-36798456D01*
X94182812Y-36866376D01*
X94033512Y-36896073D01*
X94008742Y-36901000D01*
X93831258Y-36901000D01*
X93806488Y-36896073D01*
X93657188Y-36866376D01*
X93493216Y-36798456D01*
X93345646Y-36699853D01*
X93220147Y-36574354D01*
X93121544Y-36426784D01*
X93053624Y-36262812D01*
X93019000Y-36088741D01*
X93019000Y-35911259D01*
X93053624Y-35737188D01*
X93121544Y-35573216D01*
X93220147Y-35425646D01*
X93345646Y-35300147D01*
X93493216Y-35201544D01*
X93657188Y-35133624D01*
X93806488Y-35103927D01*
X93831258Y-35099000D01*
X94008742Y-35099000D01*
X94033512Y-35103927D01*
G37*
G36*
X96573512Y-35103927D02*
G01*
X96722812Y-35133624D01*
X96886784Y-35201544D01*
X97034354Y-35300147D01*
X97159853Y-35425646D01*
X97258456Y-35573216D01*
X97326376Y-35737188D01*
X97361000Y-35911259D01*
X97361000Y-36088741D01*
X97326376Y-36262812D01*
X97258456Y-36426784D01*
X97159853Y-36574354D01*
X97034354Y-36699853D01*
X96886784Y-36798456D01*
X96722812Y-36866376D01*
X96573512Y-36896073D01*
X96548742Y-36901000D01*
X96371258Y-36901000D01*
X96346488Y-36896073D01*
X96197188Y-36866376D01*
X96033216Y-36798456D01*
X95885646Y-36699853D01*
X95760147Y-36574354D01*
X95661544Y-36426784D01*
X95593624Y-36262812D01*
X95559000Y-36088741D01*
X95559000Y-35911259D01*
X95593624Y-35737188D01*
X95661544Y-35573216D01*
X95760147Y-35425646D01*
X95885646Y-35300147D01*
X96033216Y-35201544D01*
X96197188Y-35133624D01*
X96346488Y-35103927D01*
X96371258Y-35099000D01*
X96548742Y-35099000D01*
X96573512Y-35103927D01*
G37*
G36*
X99901000Y-36901000D02*
G01*
X98099000Y-36901000D01*
X98099000Y-35099000D01*
X99901000Y-35099000D01*
X99901000Y-36901000D01*
G37*
G36*
X91493512Y-35103927D02*
G01*
X91642812Y-35133624D01*
X91806784Y-35201544D01*
X91954354Y-35300147D01*
X92079853Y-35425646D01*
X92178456Y-35573216D01*
X92246376Y-35737188D01*
X92281000Y-35911259D01*
X92281000Y-36088741D01*
X92246376Y-36262812D01*
X92178456Y-36426784D01*
X92079853Y-36574354D01*
X91954354Y-36699853D01*
X91806784Y-36798456D01*
X91642812Y-36866376D01*
X91493512Y-36896073D01*
X91468742Y-36901000D01*
X91291258Y-36901000D01*
X91266488Y-36896073D01*
X91117188Y-36866376D01*
X90953216Y-36798456D01*
X90805646Y-36699853D01*
X90680147Y-36574354D01*
X90581544Y-36426784D01*
X90513624Y-36262812D01*
X90479000Y-36088741D01*
X90479000Y-35911259D01*
X90513624Y-35737188D01*
X90581544Y-35573216D01*
X90680147Y-35425646D01*
X90805646Y-35300147D01*
X90953216Y-35201544D01*
X91117188Y-35133624D01*
X91266488Y-35103927D01*
X91291258Y-35099000D01*
X91468742Y-35099000D01*
X91493512Y-35103927D01*
G37*
G36*
X80373512Y-35103927D02*
G01*
X80522812Y-35133624D01*
X80686784Y-35201544D01*
X80834354Y-35300147D01*
X80959853Y-35425646D01*
X81058456Y-35573216D01*
X81126376Y-35737188D01*
X81161000Y-35911259D01*
X81161000Y-36088741D01*
X81126376Y-36262812D01*
X81058456Y-36426784D01*
X80959853Y-36574354D01*
X80834354Y-36699853D01*
X80686784Y-36798456D01*
X80522812Y-36866376D01*
X80373512Y-36896073D01*
X80348742Y-36901000D01*
X80171258Y-36901000D01*
X80146488Y-36896073D01*
X79997188Y-36866376D01*
X79833216Y-36798456D01*
X79685646Y-36699853D01*
X79560147Y-36574354D01*
X79461544Y-36426784D01*
X79393624Y-36262812D01*
X79359000Y-36088741D01*
X79359000Y-35911259D01*
X79393624Y-35737188D01*
X79461544Y-35573216D01*
X79560147Y-35425646D01*
X79685646Y-35300147D01*
X79833216Y-35201544D01*
X79997188Y-35133624D01*
X80146488Y-35103927D01*
X80171258Y-35099000D01*
X80348742Y-35099000D01*
X80373512Y-35103927D01*
G37*
M02*
