M48
; DRILL file {KiCad 5.1.5-52549c5~84~ubuntu19.04.1} date Fri 06 Mar 2020 12:22:33 AM CST
; FORMAT={-:-/ absolute / inch / decimal}
; #@! TF.CreationDate,2020-03-06T00:22:33-06:00
; #@! TF.GenerationSoftware,Kicad,Pcbnew,5.1.5-52549c5~84~ubuntu19.04.1
; #@! TF.FileFunction,Plated,1,2,PTH
FMAT,2
INCH
T1C0.0157
T2C0.0300
T3C0.0394
T4C0.0400
T5C0.0433
%
G90
G05
T1
X3.0394Y-2.4016
X3.1417Y-1.811
X3.5276Y-2.0236
T2
X2.6732Y-1.5961
X2.7732Y-1.5961
X2.8732Y-1.5961
X2.9732Y-1.5961
X3.0732Y-1.5961
X3.1732Y-1.5961
X3.2732Y-1.5961
X3.3732Y-1.5961
X3.4732Y-1.5961
X3.5732Y-1.5961
X3.6732Y-1.5961
X3.7732Y-1.5961
X3.8732Y-1.5961
X3.9732Y-1.5961
X4.0732Y-1.5961
X4.1732Y-1.5961
X2.9528Y-5.1969
X3.0315Y-5.1969
X3.1102Y-5.1969
X3.3858Y-4.7638
X3.3858Y-4.8425
X3.3858Y-4.9213
T3
X3.0598Y-1.4173
X3.1598Y-1.4173
X3.2598Y-1.4173
X3.5976Y-1.4173
X3.6976Y-1.4173
X3.7976Y-1.4173
X3.8976Y-1.4173
X2.6425Y-1.4173
X2.7425Y-1.4173
X2.8425Y-1.4173
T4
X3.2991Y-2.4882
X3.3991Y-2.4882
X3.4991Y-2.4882
X3.5991Y-2.4882
X3.6591Y-4.3882
X3.6991Y-2.4882
X3.7591Y-4.3882
X3.7991Y-2.4882
X3.8591Y-4.3882
X3.8991Y-2.4882
X3.9591Y-4.3882
X3.9991Y-2.4882
X4.0591Y-4.3882
X4.0991Y-2.4882
X4.1591Y-4.3882
X4.1991Y-2.4882
X4.2591Y-4.3882
X4.3591Y-2.4882
X4.3591Y-4.3882
X4.4591Y-2.4882
X4.5591Y-2.4882
X4.5591Y-4.3882
X4.6591Y-2.4882
X4.6591Y-4.3882
X4.7591Y-2.4882
X4.7591Y-4.3882
X4.8591Y-2.4882
X4.8591Y-4.3882
X4.9591Y-2.4882
X4.9591Y-4.3882
X5.0591Y-2.4882
X5.0591Y-4.3882
X5.0641Y-3.2882
X5.0641Y-3.3882
X5.0641Y-3.4882
X5.1641Y-3.2882
X5.1641Y-3.3882
X5.1641Y-3.4882
T5
X3.9764Y-4.7441
X3.9764Y-4.9213
X4.2323Y-4.7441
X4.2323Y-4.9213
X3.2677Y-4.0945
X3.2677Y-4.2717
X3.5236Y-4.0945
X3.5236Y-4.2717
X4.6457Y-4.7441
X4.6457Y-4.9213
X4.9016Y-4.7441
X4.9016Y-4.9213
T0
M30
